<svg xmlns="http://www.w3.org/2000/svg" viewBox="0 0 1642.48 846.52"><defs><style>.cls-1,.cls-3{fill:none;stroke:#2e186a;stroke-linecap:round;stroke-linejoin:round}.cls-1{stroke-width:6px}.cls-2{fill:#fe7624}.cls-3{stroke-width:8px}.cls-4{fill:#2e186a}</style></defs><g id="Layer_2" data-name="Layer 2"><g id="outline"><g id="developer"><path id="chair" class="cls-1" d="M317.73 731.65l-24.4-194.59c-9.61-76.61 45-138.72 122.06-138.72h128.85"/><g id="body"><path id="hoodie" class="cls-1" d="M625 394.92l16-22.53-4.21-30.25a906.11 906.11 0 01-3.48-6.67c-87.37 13-98 49.61-78.38 88.82C410 452.59 346.9 675.05 384.6 780.6c10.74 30 19.36 60 51.27 60.34"/><path class="cls-2" d="M670.57 475.79v-.57c4.74.46 9.34.49 13.78-3.35 11-9.53 14.9-12.39 14.9-12.39s1 1.2 2.77 3.23c2.17-4 4.43-8.15 6.74-12.35-47.49-36.78-83.76-55.44-83.76-55.44l-2.68-1.92-17.44 21.27s28.38 19.56 65.69 61.52zm229.56 345.27s-76-204.39-66.33-267.73c5.27-34.55-3-73.73-14.42-104l-21.77 1.41-26.06 61.62c1.7.42 3.4.77 5.1 1 0 0-1 6.47-3.46 21.34-1.65 9.91 1.18 11 3.42 17.88 2.89 4.63 5.11 9.83 2.67 17.87-.8 2.63-2.7 27.4-7 61 8 17 15.64 34.94 22.8 54 46.08 122.92 41.29 136.33 41.29 136.33z" id="tshirt"/><path id="hoodie-2" data-name="hoodie" class="cls-1" d="M1157.5 839.33c-5.47-36-44.48-229.23-267.66-398.72-5-30.28-17.65-77.94-82.66-100.22"/><path id="string" class="cls-3" d="M851.9 542.57s-2.4 65.28 11.89 112.21"/><path id="stripe" class="cls-4" d="M886.88 439.86c.71 4.26 1.26 8.18 1.79 11.62 6.14 39.82-7 66.26-15.69 84.59 23.33-16.5 39.06-47.88 47-71.81-9.59-7.68-22.68-16.64-33.1-24.4z"/><path id="stripe_II" data-name="stripe II" class="cls-4" d="M557.24 422.52c-16.32 3.33-43.14 11.46-62.47 24.83 13.5 7.36 80.36 47.4 135 71.42.43-.25 3.43-5.25 4.93-7.2-30.24-23.98-62.05-58.16-77.46-89.05z"/></g><g id="head"><path id="ear" class="cls-1" d="M601.25 263.25s-37.11 10.06-22.09 41.75c10.44 22 30.26 14.18 42.08 7.51"/><path id="face" class="cls-1" d="M611.15 269.27l11.66-3.91c7.69 4.65 33.09 36.21 41.28 51.85 0 0 37.29-24.19 95.5-39.66 0 0 31.69-7.24 45.47-6.66-4-32-12.18-72.88-26.58-109.43-21.42-54.33-87.7-33.25-97.32-30-103.37 35.17-70.11 137.58-70.11 137.58z"/><path id="beard" class="cls-1" d="M727.49 403.37c-12.44 0-24.27-2.07-33.58-5.75-30.2-11.93-36.62-19.62-47.46-37.76s-44.81-87.39-44.81-87.39l21.17-7.11c7.69 4.65 33.09 36.21 41.28 51.85 0 0 37.29-24.19 95.5-39.66 0 0 32-7.32 45.69-6.66 0 0 6.54 32.54 2.62 64.44"/><path id="hair" class="cls-4" d="M604.24 281.52s-19.12-22.17-32.93-48.66c-13-24.9-7.61-55.75 13.94-73.75C603.29 144 620.46 148 620.46 148s-31.06-31.64-6.57-72.57a61.32 61.32 0 0139.38-28.38c40.2-8.81 61 21.85 61 21.85s23.1-89.19 122.31-64.65c10 2.48 23.23 13.06 30.2 20.66C909 71 829.46 158 781.07 175.42c-53.13 19.12-87.3 18.07-108.18 9.13 15.01 4.57 15.56 89.24-68.65 96.97z"/><path id="nose" class="cls-3" d="M757.57 253.95l18.74 49.86-19.26-.1"/><circle id="mouth" class="cls-4" cx="747.28" cy="337.55" r="9.47"/><ellipse id="eye_II" data-name="eye II" class="cls-4" cx="777.71" cy="249.86" rx="5.42" ry="8.39" transform="rotate(-14.04 778.007 249.925)"/><ellipse id="eye" class="cls-4" cx="726.86" cy="261.64" rx="5.42" ry="8.39" transform="rotate(-14.04 727.132 261.715)"/><path id="brow_II" data-name="brow II" class="cls-3" d="M693.66 229.94a24.85 24.85 0 0120.58-14.69"/><path id="brow" class="cls-3" d="M762.32 202.32s13.64-7.43 20.27 3.58"/></g><path id="laptop" class="cls-4" d="M1354 562.9H965.2a11 11 0 00-10.7 8.47l-54.06 228.82H759.51s-7.81 40.34 37.73 40.34h496.39a11 11 0 0010.7-8.47l60.39-255.63A11 11 0 001354 562.9z"/><g id="code_lines" data-name="code lines"><rect class="cls-2" x="1191.7" y="206.24" width="13.06" height="17.89" rx="5"/><rect class="cls-4" x="1096.88" y="206.24" width="89.8" height="17.89" rx="5"/><rect class="cls-4" x="1096.88" y="289.34" width="97.93" height="17.89" rx="5"/><rect class="cls-2" x="1121.64" y="261.67" width="151.89" height="17.89" rx="5"/><rect class="cls-2" x="1282.03" y="261.67" width="82.04" height="17.89" rx="5"/><rect class="cls-4" x="1378.78" y="234.01" width="13.06" height="17.89" rx="5"/><rect class="cls-4" x="1096.88" y="233.96" width="157.06" height="17.89" rx="5"/><rect class="cls-4" x="1210.52" y="206.24" width="89.8" height="17.89" rx="5"/><rect class="cls-2" x="1260.97" y="233.9" width="110.79" height="18" rx="5"/></g><g id="code_lines-2" data-name="code lines"><rect class="cls-4" x="1096.88" y="385.61" width="89.8" height="17.89" rx="5"/><rect class="cls-4" x="1096.88" y="468.71" width="97.93" height="17.89" rx="5"/><rect class="cls-2" x="1121.64" y="441.05" width="151.89" height="17.89" rx="5"/><rect class="cls-2" x="1282.03" y="441.05" width="82.04" height="17.89" rx="5"/><rect class="cls-4" x="1378.78" y="413.38" width="13.06" height="17.89" rx="5"/><rect class="cls-4" x="1401.62" y="385.61" width="13.06" height="17.89" rx="5"/><rect class="cls-4" x="1096.88" y="413.33" width="157.06" height="17.89" rx="5"/><rect class="cls-2" x="1191.7" y="385.61" width="108.62" height="17.89" rx="5"/><rect class="cls-2" x="1307.24" y="385.61" width="89.8" height="17.89" rx="5"/><rect class="cls-2" x="1191.7" y="358.8" width="13.06" height="17.89" rx="5"/><rect class="cls-4" x="1096.88" y="358.8" width="89.8" height="17.89" rx="5"/><rect class="cls-4" x="1210.52" y="358.8" width="89.8" height="17.89" rx="5"/><rect class="cls-2" x="1260.97" y="413.28" width="110.79" height="18" rx="5"/></g><g id="mug"><path id="handle" class="cls-1" d="M1484.34 735.41a26.47 26.47 0 016.76-1.41 26.07 26.07 0 11-2.15 51.76"/><path id="spoon" class="cls-1" d="M1421.52 738.81l-37.27-45.5"/><path id="mug-2" data-name="mug" class="cls-4" d="M1378.78 724.71v85.81a30 30 0 0030 30h50.6a30 30 0 0030-30v-85.81zm44.74 62.83a2 2 0 011 1.76 2 2 0 01-2 2 2 2 0 01-1-.25l-20-12a2 2 0 010-3.62l20-12a2 2 0 011-.25 2 2 0 012 2 2 2 0 01-1 1.76l-17.21 10.32zm25-29.58l-16.1 40.25a2.09 2.09 0 01-.4.55 2 2 0 01-1.43.6 2 2 0 01-2-2 2 2 0 01.18-.85l16.1-40.25a2.08 2.08 0 01.43-.58 1.89 1.89 0 011.41-.58 2 2 0 012 2 2.11 2.11 0 01-.19.9zm27.25 21.04l-20 12a2 2 0 01-1 .25 2 2 0 01-2-2 2 2 0 011-1.76l17.23-10.26-17.21-10.32a2 2 0 01-1-1.76 2 2 0 01.59-1.42 2 2 0 011.43-.59 2 2 0 011 .25l20 12a2 2 0 010 3.62z"/></g><g id="tea"><path id="handle-2" data-name="handle" class="cls-1" d="M245.2 786a26.07 26.07 0 11-3.83-52 25.69 25.69 0 014.73.08"/><path id="ug" class="cls-4" d="M241.81 724.71v85.81a30 30 0 0030 30h50.61a30 30 0 0030-30v-85.81zm44.75 62.83a2 2 0 011 1.76 2 2 0 01-2 2 2 2 0 01-1-.25l-20-12a2 2 0 010-3.62l20-12a2 2 0 011-.25 2 2 0 012 2 2 2 0 01-1 1.76l-17.21 10.32zm42.18-8.5l-20 12a2 2 0 01-1 .25 1.91 1.91 0 01-1.42-.59 1.93 1.93 0 01-.59-1.42 2 2 0 011-1.76l17.21-10.31-17.21-10.32a2 2 0 01-1-1.76 2 2 0 012-2 2 2 0 011 .25l20 12a2 2 0 010 3.62z"/></g><g id="soda"><path id="line" class="cls-1" d="M427.34 690.13l-13.67-24.81"/><path id="line-2" data-name="line" class="cls-1" d="M396.99 692.78h75.77"/><g id="can"><path class="cls-4" d="M462.27 773.58a5.9 5.9 0 101.71 4.15 5.69 5.69 0 00-1.71-4.15zm-4.16-8.76a5.87 5.87 0 10-4.11-1.72 5.65 5.65 0 004.11 1.72zm4.16 35.85a5.9 5.9 0 10-4.16 1.71 5.68 5.68 0 004.16-1.71z"/><path class="cls-4" d="M480.21 710.88l-13.29-17.29h-64.09l-13.29 17.29a9.15 9.15 0 00-2 5.61v105.26a9.84 9.84 0 004.96 8.25c4.11 2.56 9.35 6.52 9.72 10.31h65.31c.36-3.79 5.6-7.75 9.71-10.31a9.84 9.84 0 004.93-8.27V716.49a9.2 9.2 0 00-1.96-5.61zm-27.82 20.19l7-11.68a1.21 1.21 0 011-.65 1.23 1.23 0 011.06.65l7 11.68a1.15 1.15 0 01.15.59 1.11 1.11 0 01-.34.82 1.14 1.14 0 01-.83.35 1.19 1.19 0 01-1-.6l-6-10-6 10a1.2 1.2 0 01-1 .6 1.14 1.14 0 01-.83-.35 1.12 1.12 0 01-.35-.82 1.15 1.15 0 01.14-.59zm.46 4.4a1.12 1.12 0 01.69-.22 1.14 1.14 0 01.83.35 1.12 1.12 0 01.34.83 1 1 0 01-.31.77l-.44.43a5.67 5.67 0 00-1.72 4.15 5.12 5.12 0 001.53 3.89 1.55 1.55 0 001 .35 1 1 0 00.94-.72l2.39-7.22a5.14 5.14 0 011.05-1.86 3.32 3.32 0 012.48-1 3.5 3.5 0 012.54 1.08 7.41 7.41 0 012.15 5.52 8.14 8.14 0 01-2.95 6.31.94.94 0 01-.69.22 1.16 1.16 0 01-1.17-1.17 1 1 0 01.31-.78l.44-.43a5.66 5.66 0 001.71-4.15 5.11 5.11 0 00-1.52-3.89 1.57 1.57 0 00-1-.35 1 1 0 00-.94.72l-2.4 7.22a5.15 5.15 0 01-1 1.86 3.32 3.32 0 01-2.48 1 3.5 3.5 0 01-2.54-1.08 7.41 7.41 0 01-2.15-5.52 8.13 8.13 0 012.91-6.31zm-.55 17.67a8.23 8.23 0 11-2.4 5.81 7.91 7.91 0 012.4-5.81zm-2.06 51.25a1.18 1.18 0 01.83-2h1.29a8.23 8.23 0 115.75 2.35h-7a1.13 1.13 0 01-.87-.35zm18.29 4.45l-7 11.68a1.23 1.23 0 01-1.06.65 1.21 1.21 0 01-1-.65l-7-11.68a1.15 1.15 0 01-.15-.59 1.12 1.12 0 01.35-.82 1.1 1.1 0 01.83-.35 1.2 1.2 0 011 .6l6 10 6-10a1.19 1.19 0 011-.6 1.18 1.18 0 011.17 1.17 1.15 1.15 0 01-.14.59zm4.53-23.23a1.13 1.13 0 01-.83.34h-14.12a8.21 8.21 0 115.82-2.41l-.06.06h8.36a1.14 1.14 0 01.83.35 1.13 1.13 0 01.35.83 1.16 1.16 0 01-.35.83z"/></g></g><g id="hand"><path id="thumb" class="cls-1" d="M728.2 413.19c.41-12.93.21-33.28-4.38-42.17-7.29-14.11-.49-29.17 14.42-13.76 8.5 8.78 12.67 20.43 14.69 28.82"/><circle class="cls-1" cx="854.1" cy="366.37" r="26.07"/><path id="sleeve" class="cls-1" d="M685.24 843.52c76.2-5.69 91.36-264.23 94-273.06 5.29-17.44-11.32-21.53-9.14-35.34s.49-20 .49-20c-35.77-5.82-70.51-50.8-70.51-50.8s-3.6 2.63-13.85 11.39-21.69-4.7-33.39 8.72C645.12 493.38 561 634.6 561 634.6"/><path id="welt" class="cls-4" d="M773.19 534.71c2.48-14.87 3.46-21.34 3.46-21.34-38.09-5.86-77.37-53.89-77.37-53.89s-3.88 2.86-14.9 12.39c-4.44 3.84-9 3.81-13.78 3.35-3.37 41.71 71.45 78.84 106.89 80.59-2.26-10.02-6.17-9.81-4.3-21.1z"/><path id="line-3" data-name="line" class="cls-1" d="M511.48 610.91s45.1-38.92 71.28-14.4"/><path id="hand-2" data-name="hand" class="cls-1" d="M684.44 495.72L760 539.65l37.82-89.42c36.49.06 36.33-19.76 28.69-20.44s-44.33 4.47-44.33 4.47 1.19-2.67 31-8.33 24.21-22.27 17.8-22.72-53.78 11.42-53.78 11.42l40.7-14.53c14.49-4.6 15-18.64 7.43-20.62-5-1.31-31.66 6.75-52.76 14.13 0 0 25.36-13 37.39-20.86s3.62-18.11-3.41-17.47-55.87 33.3-65.17 41.39-56.94 99.05-56.94 99.05z"/></g><g id="coffe"><path id="handle-3" data-name="handle" class="cls-1" d="M635.24 734.65a27.18 27.18 0 014.18-.65 26.07 26.07 0 11-5.77 50.92"/><path id="mug-3" data-name="mug" class="cls-4" d="M527.1 724.71v85.81a30 30 0 0030 30h50.6a30 30 0 0030-30v-85.81zm44.74 62.83a2 2 0 011 1.76 2 2 0 01-2 2 2 2 0 01-1-.25l-20-12a2 2 0 010-3.62l20-12a2 2 0 011-.25 2 2 0 011.42.59 1.91 1.91 0 01.59 1.42 2 2 0 01-1 1.76l-17.21 10.32zm25-29.58l-16.1 40.25a2.13 2.13 0 01-.41.55 2 2 0 01-1.43.6 2 2 0 01-2-2 2.19 2.19 0 01.17-.85l16.1-40.25a2.29 2.29 0 01.43-.58 1.92 1.92 0 011.41-.58 2 2 0 012 2 2.27 2.27 0 01-.16.9zM624.09 779l-20 12a2 2 0 01-1 .25 2 2 0 01-2-2 2 2 0 011-1.76l17.2-10.31-17.2-10.32a2 2 0 01-1-1.76 1.91 1.91 0 01.59-1.42 2 2 0 011.42-.59 2 2 0 011 .25l20 12a2 2 0 010 3.62z"/></g><path id="line-4" data-name="line" class="cls-1" d="M3 843.03h1636.48"/><path class="cls-4" d="M853.73 417l-5.54-85.63-110.37 7.15 3.75 57.94c9.81-8.39 58-40.57 64.95-41.2s15.44 9.62 3.41 17.47-37.39 20.86-37.39 20.86c21.1-7.38 47.79-15.44 52.76-14.13 7.58 2 7.06 16-7.43 20.62l-40.7 14.53s47.37-11.87 53.78-11.42 12 17.06-17.8 22.72-31 8.33-31 8.33 36.7-5.16 44.33-4.47 7.8 20.5-28.69 20.44l-.21.49 28.12-1.82A30 30 0 00853.73 417z"/></g></g></g></svg>