<svg xmlns="http://www.w3.org/2000/svg" width="101" height="64.001"><path d="M.017 56.845a7.242 7.242 0 017.148-7.323 7.312 7.312 0 017.23 7.323 7.23 7.23 0 01-7.23 7.156 7.153 7.153 0 01-7.148-7.156zm0-24.762a7.242 7.242 0 017.148-7.323 7.312 7.312 0 017.23 7.323 7.23 7.23 0 01-7.23 7.156 7.153 7.153 0 01-7.148-7.156zm.142-26.24a7.233 7.233 0 018.5-5.69 7.31 7.31 0 015.568 8.657A7.191 7.191 0 01.154 5.844zm26.036 51a7.189 7.189 0 117.143 7.158 7.153 7.153 0 01-7.148-7.156z" fill="#ff825c" fill-rule="evenodd" data-name="Group 6"/></svg>