<svg viewBox="0 0 24 24" xmlns="http://www.w3.org/2000/svg"><path d="M.338 4.422L2.935 6.13v10.867L.223 19.673c-.476.471-.141 1.284.527 1.284h5.869c.667 0 1.004-.812.527-1.284l-2.712-2.676V9.085c2.781 5.916 5.492 11.673 5.427 11.542.274.556 1.141.571 1.376-.075l.001-.002.001-.002 1.955-5.394c.05-.139 2.421-6.906 2.458-7.011v9.773l-1.741 1.765a.75.75 0 00.534 1.277h8.805c.662 0 1-.799.536-1.274l-1.673-1.713-.067-11.933 1.731-1.708c.476-.471.141-1.284-.527-1.284l-6.87.004c-.958.028-.634.889-3.986 9.772l-4.11-9.329a.752.752 0 00-.687-.448H.75c-.742.001-1.033.97-.412 1.377zm2.239 15.036l1.107-1.093 1.107 1.093zM17.152 4.546h4.271c-.479.535-.881.691-.879 1.185l.071 12.551c.002.476.391.643.854 1.175h-5.23c.517-.587.914-.748.914-1.234V4.546zm-10.044 0l4.554 10.335-1.226 3.447C4.26 5.212 4.477 5.006 3.255 4.546z"/></svg>