<svg xmlns="http://www.w3.org/2000/svg" width="60" height="60" viewBox="0 0 213.795 234.623"><path fill="#feba91" d="M85.009 0l128.834 25.058-25.058 128.835-128.834-25.059z"/><g fill="#2e186a"><path d="M95.164 41.606a3 3 0 013.39-2.336l.173.032 91.3 19.6a3 3 0 01-1.086 5.9l-.173-.032-91.3-19.6a3 3 0 01-2.304-3.564z"/><path data-name="Path" d="M91.864 58.706a3 3 0 013.389-2.336l.174.032 88.1 18.9a3 3 0 01-1.085 5.9l-.173-.032-88.1-18.9a3 3 0 01-2.305-3.564zm-5.699 17.5a3 3 0 013.389-2.336l.173.032 67.5 14.5a3 3 0 01-1.087 5.9l-.173-.032-67.5-14.5a3 3 0 01-2.302-3.564z"/></g><path data-name="Rectangle" fill="#fe7624" d="M0 114.405L120.219 61.86l52.544 120.219-120.218 52.545z"/><path data-name="Path" d="M101.658 119.861a3 3 0 012.439 5.474l-.161.072-56.7 23.3a3 3 0 01-2.439-5.472l.161-.072zM83.06 152.76a3 3 0 012.437 5.48l-.161.072-26.6 10.9a3 3 0 01-2.439-5.477l.161-.072z" fill="#2e186a"/><path data-name="Path" d="M69.798 77.336l-1.4 7.2 50.3-18.7 39.1 82 7.1 1.3-43.1-91.2z" fill="#fff"/></svg>