<svg xmlns="http://www.w3.org/2000/svg" viewBox="0 0 1247 711.9"><g data-name="product launch/solid_II"><g data-name="product launch_solid_II"><path d="M1034.6 613.9c-12.7 7.1-36.2 15.6-55.6-3.4-20-19.5-34.3-19.1-41-17.2a5.036 5.036 0 00-5.3 2.4l-42.1 76.5A19.015 19.015 0 01874 682H736.9a4.9 4.9 0 100 9.8H874a28.78 28.78 0 0025.2-14.9l24.6-44.8c9.2 1.2 21.7 5.3 33.4 16.8 22.6 22 49.1 9.6 58.8 3.7a16.13 16.13 0 005.7-5.9l16.5-29.1a2.652 2.652 0 00-3.6-3.7zm-680.4-88.5a2.43 2.43 0 00-3.4-1.1c-.4.2-4.6 2.8-22.9 11.9l-8.4 4.1c-39.9 19.2-98.8 43.6-122.7 33.5a2.443 2.443 0 00-2.8.6c-.1.1-8.7 9.4-27.5 18.2-17.3 8.1-47.1 17.3-90.6 15.2a2.362 2.362 0 00-2.5 2.8 2.559 2.559 0 002.4 2.1c3.9.2 7.6.3 11.3.3l1.8 11.8a2.81 2.81 0 005.2 1l7.6-13.2c5.3-.3 10.4-.8 15.3-1.4l2.8 10.2a2.864 2.864 0 005.3.5l6-12.9c4.1-.8 7.9-1.7 11.5-2.6l2.3 8.5a2.864 2.864 0 005.3.5l6.2-13.2a122.609 122.609 0 0012.2-5l1.6 5.9a2.864 2.864 0 005.3.5l6.2-13.4a80.144 80.144 0 0015-11.3c5.1 1.8 11.3 2.3 18.3 1.9l4.2 10.4a2.778 2.778 0 005.2-.1L229 579c4.4-.8 8.9-1.8 13.5-3.1l1.9 8.1a2.76 2.76 0 005.2.6l6.5-12.8c4.4-1.4 8.8-3 13.2-4.6l1.7 7.3a2.833 2.833 0 005.2.8l7.8-13.7c3.9-1.6 7.8-3.2 11.7-4.9l1.9 7a2.864 2.864 0 005.3.5l6.2-13.4c4.2-1.9 8.2-3.8 12.1-5.7l1.5 5.7a2.864 2.864 0 005.3.5l5.7-12.2c15.5-7.8 18.4-9.6 19.9-10.4a3.181 3.181 0 00.6-3.3z" fill="#5d21d1"/><path data-name="Path" d="M473.3 490.1a2.443 2.443 0 00-2.8.6c-.1.1-8.7 9.4-27.5 18.2-17.3 8.1-47.1 17.3-90.6 15.2a2.362 2.362 0 00-2.5 2.8 2.559 2.559 0 002.4 2.1c3.9.2 7.6.3 11.3.3l1.7 11.6a2.909 2.909 0 005.4 1l7.4-13c5.3-.3 10.4-.8 15.3-1.4l2.7 10a2.9 2.9 0 005.4.5l5.9-12.7c4.1-.8 7.9-1.7 11.5-2.6l3.2 9.6a2.915 2.915 0 005.5.1l5.1-13.9a122.609 122.609 0 0012.2-5l1.5 5.7a2.9 2.9 0 005.4.5l6.1-13.1a80.144 80.144 0 0015-11.3m637.5 50.8a2.39 2.39 0 00-3.2-1.4c-38.5 16.1-79 8-120.3-23.9-31.1-24-50.9-53.3-51.1-53.5a2.544 2.544 0 00-3.4-.7 2.544 2.544 0 00-.7 3.4 210.417 210.417 0 0016.2 20.5l4.9 23.5a2.892 2.892 0 005.3.9l4.9-8.3c4.2 4.1 8.7 8.2 13.5 12.2l5.2 18.1a2.873 2.873 0 005.2.7l4.6-7.2c4.1 2.9 8.2 5.5 12.4 8l7.2 20.3a2.887 2.887 0 005.2.5l6.4-11.2a113.564 113.564 0 0011.9 4.3l9.4 16.4a2.917 2.917 0 005.3-.6l3.5-11.7a112.468 112.468 0 0015.3 1.1h1.2l10.1 13.2a2.913 2.913 0 005.1-1l4.1-14.3a109.057 109.057 0 0020.2-6.2 2.469 2.469 0 001.6-3.1z" fill="#5d21d1"/><path data-name="Path" d="M75.4 607.1a3 3 0 012.995 2.824l.005.176v98.8a3 3 0 01-5.995.176l-.005-.176v-98.8a3 3 0 013-3zm120.3-34a3 3 0 012.995 2.824l.005.176v131.2a3 3 0 01-5.995.176l-.005-.176V576.1a3 3 0 013-3zm156.6-49.8a3 3 0 012.995 2.824l.005.176v180.8a3 3 0 01-5.995.176l-.005-.176V526.3a3 3 0 013-3zm756.1 20.2a3 3 0 012.995 2.824l.005.176v162.4a3 3 0 01-5.995.176l-.005-.176V546.5a3 3 0 013-3z" fill="#fe7624"/><path d="M924.4 454.599l-362 2.4a14.982 14.982 0 00-13.4 7.6l-116.8 212.5-296.8.2s-5.1 29.8 37.6 31.6l640-.8 125-234.5c4.8-8.9-2.6-19.1-13.6-19z" fill="#fe7624"/><path d="M469.4 676.199l305.7-1.3 94.6-184.3c3.7-7.1-1.2-15.7-8.8-15.6l-277.8 3.4z" fill="#fff"/><path data-name="Path" d="M894.473 454.799c13.1-.117 22.03 12.112 16.543 23.084l-.171.332-123.8 231.3a3 3 0 01-5.371-2.668l.081-.164 123.792-231.284c3.584-6.788-2.091-14.68-11.02-14.6a3 3 0 11-.054-6z" fill="#fff"/><g transform="translate(372.5)"><path data-name="Path" d="M113.2 548.9l33.5 61.6a3.267 3.267 0 006.1-1.6l-2.2-28s19.6 67.4 46.5 69.1 52.7-71 52.7-71l-7.1 30.5a3.255 3.255 0 006.1 1.6l35.8-62.2M71.3 310.7s-79.9 108.2-69.6 205H178V308.4zm251.2 0s79.9 108.2 69.6 205H215.8V308.4z" fill="#5d21d1"/><path data-name="Path" d="M268.8 515.7c67.7-121.7 60.3-218.3 40.6-284.5-19.8-66.2-66.2-140-110.3-140s-90.5 73.8-110.3 140S60.7 394 128.4 515.7l-18.9 40.8H288l-19.2-40.8z" fill="#fff"/><path d="M288.001 559.5H109.5a3 3 0 01-2.722-4.262l18.26-39.418-1.126-2.046c-7.471-13.66-14.229-27.458-20.086-41.011a427.659 427.659 0 01-15.069-40.2 379.514 379.514 0 01-10.236-39.428 348.758 348.758 0 01-5.589-38.674l-.133-1.579a332.566 332.566 0 01-1.092-31.861c.148-10.3.8-20.707 1.936-30.93a328.047 328.047 0 014.8-30.169 353.518 353.518 0 017.487-29.581c10.374-34.684 27.32-69.58 46.492-95.739 10.9-14.871 22.071-26.393 33.2-34.245C177.061 92.29 188.325 88.2 199.101 88.2s22.039 4.09 33.473 12.157c11.134 7.852 22.305 19.373 33.2 34.245 19.173 26.16 36.119 61.056 46.493 95.743 2.913 9.789 5.4 19.7 7.378 29.46a325.374 325.374 0 014.669 30.154 322.249 322.249 0 011.793 30.986c.1 10.523-.321 21.274-1.252 31.955a350.841 350.841 0 01-5.652 38.993 383.143 383.143 0 01-10.354 39.789 432.855 432.855 0 01-15.239 40.608c-5.923 13.694-12.756 27.64-20.309 41.449l-1.142 2.073 18.548 39.413a2.956 2.956 0 01-.138 2.814 2.99 2.99 0 01-2.4 1.459zm-88.9-465.3c-9.664 0-19.943 3.853-30.551 11.451-10.439 7.477-20.967 18.41-31.291 32.5C118.474 163.775 101.86 198 91.674 232.06c-12.026 40.209-16.244 79.57-12.9 120.332 4.344 52.886 21.921 107.34 52.244 161.85a3.008 3.008 0 01.1 2.719L114.195 553.5h169.079l-17.186-36.523a2.992 2.992 0 010-2.552l.094-.183c30.375-54.6 48.109-109.063 52.709-161.865a317.74 317.74 0 00-12.365-120.317c-10.186-34.055-26.8-68.284-45.583-93.911-10.325-14.087-20.853-25.02-31.292-32.5-10.608-7.596-20.886-11.449-30.55-11.449z" fill="#2e186a"/><ellipse cx="50.4" cy="60" rx="50.4" ry="60" transform="translate(148.7 221.6)" fill="#5d21d1"/><ellipse data-name="Oval" cx="8.4" cy="10" rx="8.4" ry="10" transform="translate(190.7 348.6)" fill="#5d21d1"/><ellipse data-name="Oval" cx="8.4" cy="10" rx="8.4" ry="10" transform="translate(223.1 348.6)" fill="#5d21d1"/><ellipse data-name="Oval" cx="8.4" cy="10" rx="8.4" ry="10" transform="translate(155.8 348.6)" fill="#5d21d1"/><ellipse data-name="Oval" cx="38.1" cy="45.3" rx="38.1" ry="45.3" transform="translate(161 230.4)" fill="#fff"/><path d="M199.1 324a35.71 35.71 0 01-16.051-3.81 41.224 41.224 0 01-13.058-10.376 49.391 49.391 0 01-8.779-15.357 56.369 56.369 0 010-37.514 49.393 49.393 0 018.779-15.358 41.225 41.225 0 0113.058-10.375 35.713 35.713 0 0132.1 0 41.223 41.223 0 0113.06 10.376 49.393 49.393 0 018.778 15.358 56.371 56.371 0 010 37.514 49.391 49.391 0 01-8.778 15.357 41.223 41.223 0 01-13.058 10.375A35.71 35.71 0 01199.1 324zm0-90.6c-19.354 0-35.1 18.976-35.1 42.3s15.746 42.3 35.1 42.3 35.1-18.975 35.1-42.3-15.745-42.3-35.1-42.3z" fill="#2e186a"/><path data-name="Path" d="M208 89.5V17.9a11.2 11.2 0 002.1-6.5 11 11 0 00-22 0 11.2 11.2 0 002.1 6.5v71.5c-18.5 3.8-37 19.3-53.9 40.1a239.042 239.042 0 0167-5.4 345.825 345.825 0 0161.2 8.8C247 110.5 227.4 93.7 208 89.5zm73.2 80.2c-22.1-7.4-47.5-13.9-81.6-15.2-34.8-1.3-61.2 6.5-82.9 15a320.817 320.817 0 00-23.1 53.7c26-12.7 57.9-26.1 106.8-25.2 46.5.8 78.5 11.1 102.8 21.9a322.659 322.659 0 00-22-50.2zm-15 345.5c3.2-5.8 6.3-11.5 9.2-17.2-15.3-6.2-37.3-11.4-76.4-11-39.5-.3-61.6 5-76.9 11.3 2.9 5.6 5.9 11.3 9 17 0 0 34.7-6.8 67.8-6.5 32.6-.3 67.3 6.4 67.3 6.4z" fill="#5d21d1"/></g><path d="M823.1 674.9H665.9s-22.6-20.3-12.2-36.9 37.7-20.6 46.6-3.8c0 0 3.9-32.1 36.8-29.6 33 2.5 30.4 36.8 30.4 36.8s41.7-29.5 40.6 16.6c-.1-.1 2.5 16.9 15 16.9z" fill="#fff"/><path d="M823.1 677.901H665.9a3 3 0 01-2.005-.769c-.308-.277-.983-.9-2.045-2l-.46-.481a66.383 66.383 0 01-5.379-6.428 46.6 46.6 0 01-6.3-11.352 26.03 26.03 0 01-1.66-11.287 20.621 20.621 0 013.11-9.176 33.746 33.746 0 0112.989-11.874 35.576 35.576 0 0116.427-4.118 28.994 28.994 0 019.79 1.63 23.209 23.209 0 018.24 5l.268.261.226-.684a43.553 43.553 0 013.76-8.212l.4-.66a33.763 33.763 0 0112.222-11.961 36.426 36.426 0 0117.978-4.331c1.257 0 2.558.05 3.867.15l.533.043c7.2.621 13.363 2.725 18.317 6.252a32.045 32.045 0 0110.847 13.848 44.6 44.6 0 013.162 12.092c.09.741.164 1.47.219 2.167v.046l.633-.356a71.172 71.172 0 012.319-1.237l.8-.4a48.739 48.739 0 0113.146-4.54 28.565 28.565 0 014.791-.43c5.1 0 9.257 1.613 12.372 4.794 4.641 4.741 6.874 12.811 6.636 23.985l.016.1.08.417c.088.433.206.928.341 1.433a25.984 25.984 0 002 5.211c2.4 4.623 5.528 6.87 9.563 6.87l.2.005a3 3 0 010 5.989l-.2.005zm-142.601-51.469a29.105 29.105 0 00-24.257 13.161 14.48 14.48 0 00-2.215 6.529c-.492 5.46 1.8 11.7 6.825 18.554a60.344 60.344 0 004.891 5.845c.354.374.714.743 1.1 1.128l.254.25h143.776l-.373-.472a24.417 24.417 0 01-2.107-3.29l-.18-.342a31.976 31.976 0 01-2.466-6.417c-.2-.729-.366-1.464-.491-2.124l-.034-.185a10.796 10.796 0 01-.077-.481l-.021-.158-.02-.223v-.455l.016-.92c.08-9-1.581-15.282-4.936-18.671l-.187-.184a11.135 11.135 0 00-8.013-2.878 21.913 21.913 0 00-3.666.334 42.825 42.825 0 00-11.5 4.006 66.746 66.746 0 00-6.494 3.679l-.7.459-.534.363a2.962 2.962 0 01-1.582.464 3.047 3.047 0 01-2.225-.978 2.951 2.951 0 01-.777-2.256l.013-.247.016-.439a40.1 40.1 0 00-.31-5.916 38.651 38.651 0 00-2.725-10.467c-4.339-10.181-12.397-15.583-24.628-16.509a45.02 45.02 0 00-3.424-.133c-11.121 0-19.562 4.525-25.087 13.452a37.789 37.789 0 00-4.148 9.472 35.244 35.244 0 00-.751 3.108c-.077.4-.123.678-.149.841l-.058.407a2.971 2.971 0 01-2.976 2.465 2.936 2.936 0 01-2.627-1.6l-.228-.415c-3.163-5.565-9.327-8.758-16.925-8.757z" fill="#2e186a"/><path d="M322.6 675.2h157.2s22.6-20.3 12.2-36.9-37.7-20.6-46.6-3.8c0 0-3.9-32.1-36.8-29.6-33 2.5-30.4 36.8-30.4 36.8s-41.7-29.5-40.6 16.6c.1-.1-2.5 16.8-15 16.9z" fill="#fff"/><path data-name="cloud_2_" d="M479.8 678.201H322.6a3 3 0 01-.023-6l.311-.007c3.8-.143 6.782-2.294 9.1-6.577l.173-.326a25.893 25.893 0 002-5.188 23.51 23.51 0 00.39-1.668l.049-.266-.008-.46c-.167-10.962 2.081-18.888 6.681-23.558 3.111-3.158 7.261-4.76 12.337-4.76a28.138 28.138 0 014.341.356l.45.074a48.741 48.741 0 0113.141 4.538c1.04.514 2.09 1.066 3.119 1.639l.632.356.049-.573c.035-.384.071-.739.11-1.084l.065-.555a44.6 44.6 0 013.162-12.092 32 32 0 0111.021-13.968c5.044-3.539 11.327-5.616 18.673-6.173l.551-.04a51.155 51.155 0 013.315-.11 36.428 36.428 0 0117.978 4.331 33.763 33.763 0 0112.226 11.962 43.192 43.192 0 014.157 8.874l.226.684.269-.261a23.209 23.209 0 018.24-5 28.993 28.993 0 019.789-1.631 35.584 35.584 0 0116.142 3.969 33.9 33.9 0 0112.914 11.456l.362.565a20.62 20.62 0 013.107 9.176 26.032 26.032 0 01-1.66 11.287 46.59 46.59 0 01-6.3 11.352 66.29 66.29 0 01-5.378 6.429 51.651 51.651 0 01-2.26 2.256l-.246.224a2.991 2.991 0 01-2.005.769zm-126.083-42.799a11.135 11.135 0 00-8.017 2.877c-3.481 3.34-5.2 9.684-5.124 18.854l.014.912.006.12v.344l-.021.223-.02.158c-.013.089-.029.194-.048.306l-.065.358a29.894 29.894 0 01-.491 2.114 31.931 31.931 0 01-2.465 6.391 24.194 24.194 0 01-2.672 4.11l-.023.028H478.6c.17-.166.344-.339.517-.515l.551-.564.287-.3a60.353 60.353 0 004.891-5.845c5.02-6.852 7.316-13.095 6.825-18.554a14.481 14.481 0 00-2.215-6.529 29.1 29.1 0 00-24.256-13.158c-7.81 0-14.061 3.343-17.15 9.173l-.087.155a2.9 2.9 0 01-2.54 1.443 2.985 2.985 0 01-3-2.641l-.049-.337-.131-.734a35.967 35.967 0 00-.751-3.108 37.789 37.789 0 00-4.148-9.472c-5.53-8.927-13.972-13.452-25.093-13.452-1.108 0-2.26.045-3.424.133l-.523.043c-11.942 1.043-19.828 6.431-24.104 16.47a38.65 38.65 0 00-2.725 10.467 39.173 39.173 0 00-.3 6.251l.026.517a2.944 2.944 0 01-.839 2.145 3.056 3.056 0 01-2.171.921 2.972 2.972 0 01-1.722-.558l-.394-.269-.7-.459-.074-.048-.237-.152-.673-.422a67.456 67.456 0 00-5.508-3.057 42.824 42.824 0 00-11.5-4.006 21.906 21.906 0 00-3.666-.333z" fill="#2e186a"/><path d="M1244 705.9a3 3 0 01.176 5.995l-.176.005H3a3 3 0 01-.176-5.995L3 705.9z" fill="#2e186a"/></g></g></svg>