<svg xmlns="http://www.w3.org/2000/svg" viewBox="0 0 1225.1 709.2"><g data-name="support/solid"><g data-name="support_solid"><path d="M459.1 468.5c-9.6-5.1-17.8-2.7-26.8 6.9 4.1-23.2 4-51.3-14.4-56-18.9-4.9-29.6 6.9-40.7 35.4.4-24.4-4.4-55.9-24.6-57.2-22.7-1.4-30.3 17.3-35.9 58.8-7.1-23.2-26.6-63.9-49.6-55.8-22.5 7.9-21 29.6-8.5 73.8-12.3-19.1-37-47.5-53.5-36.7-15.7 10.2-11.4 26.9 6 57.9-11.5-5-23.4-5.5-33 3.9-21.5 21.2-11.1 41.3 18.6 78.6 29.8 37.3 243.7-28.7 253.8-45.5 10.2-16.9 26.1-54.7 8.6-64.1z" fill="#fff"/><path d="M237.895 592.415h-.008c-22.29 0-36.937-4.188-43.534-12.445a316.178 316.178 0 01-19.342-26.368c-4.657-7.327-7.666-13.449-9.469-19.265l-.22-.728c-2.027-6.887-2.161-13.113-.427-19.035 1.744-5.939 5.376-11.571 11.1-17.217a27.631 27.631 0 0119.9-8.299 35.847 35.847 0 018.6 1.105l.252.064-.436-.821c-6.843-12.951-10.4-22.126-11.529-29.749l-.057-.4c-.737-5.337-.233-9.871 1.54-13.86a23.634 23.634 0 019.2-10.21 17.4 17.4 0 019.681-2.907c6.558.003 14.03 3.448 22.199 10.248a118.511 118.511 0 0115.891 16.538l.258.321-.2-.826c-3.734-15.333-5.148-25.979-4.588-34.508l.065-.868c.549-6.567 2.359-11.8 5.533-15.982 3.19-4.207 7.7-7.293 13.8-9.433a21.339 21.339 0 017.097-1.242 24.407 24.407 0 0113.961 4.832 56.611 56.611 0 0113.14 13.661 137.993 137.993 0 0115.2 28.887l.022.058.18-1.067c2.628-15.444 5.628-25.654 9.725-33.1l.193-.346a29.424 29.424 0 0110.3-11.227 26.966 26.966 0 0114.381-3.698c.808 0 1.646.026 2.49.078a20.913 20.913 0 0113.739 6.27c3.693 3.673 6.7 8.962 8.941 15.718a100.486 100.486 0 014.374 24.315l.013.175.359-.734c4.309-8.714 8.707-14.917 13.443-18.962a24.053 24.053 0 0116.191-6.113 34.7 34.7 0 018.194 1.067l.6.15a20.818 20.818 0 0111.824 7.963c2.9 3.9 4.927 9.116 6.028 15.5 1.3 7.565 1.33 16.7.074 27.158l-.061.5.42-.3a21.814 21.814 0 0112.72-4.43 22.681 22.681 0 0110.505 2.786l.367.193a16.444 16.444 0 015.735 5.033 19.623 19.623 0 013.049 7.268c1.147 5.382.743 12.205-1.2 20.281-2.662 11.071-8.423 24.753-15.034 35.707-1.419 2.361-5.877 5.417-13.249 9.082a281.289 281.289 0 01-27.83 11.557 760.836 760.836 0 01-80.314 23.767c-18.883 4.5-36.339 7.959-51.882 10.278a290.3 290.3 0 01-41.904 3.58zm-41.942-97.352a21.882 21.882 0 00-15.746 6.573c-9.8 9.66-12.526 18.716-9.128 30.281 2.982 10.149 10.258 21.86 25.951 41.769l2.014 2.542c2.7 3.384 7.4 5.961 13.97 7.662 6.386 1.653 14.588 2.492 24.379 2.492 23.284 0 55.407-4.724 92.9-13.662a762.584 762.584 0 0079.457-23.5c10.452-3.8 19.605-7.539 26.47-10.825 6.7-3.208 10.751-5.749 11.713-7.348 6.317-10.468 11.812-23.5 14.339-34.014 1.615-6.718 2.055-12.332 1.306-16.685-.759-4.416-2.739-7.512-5.884-9.2a17.058 17.058 0 00-8.049-2.255c-4.685 0-9.291 2.5-14.5 7.866l-.66.692a2.9 2.9 0 01-2.157.959 3.114 3.114 0 01-2.359-1.1 2.924 2.924 0 01-.627-2.43c2.539-14.368 2.86-26.7.929-35.675-2.048-9.511-6.464-15.2-13.128-16.9a27.75 27.75 0 00-7-.974c-6.181 0-11.291 2.585-16.081 8.134-4.692 5.436-9.162 13.833-14.067 26.424a2.884 2.884 0 01-2.758 1.915 3.12 3.12 0 01-2.218-.909 2.912 2.912 0 01-.82-2.144c.258-15.653-1.504-28.907-5.104-38.331-3.776-9.892-9.543-15.366-16.679-15.825a35.028 35.028 0 00-2.141-.067c-9.03 0-15.123 3.842-19.757 12.458-4.554 8.47-7.9 21.983-10.845 43.816a2.953 2.953 0 01-2.988 2.6 2.907 2.907 0 01-2.854-2.123c-4.372-14.285-11.253-28.778-18.408-38.768-7.575-10.58-15.1-15.944-22.355-15.944a14.947 14.947 0 00-4.973.861c-9.79 3.438-14.371 9.383-15.318 19.879-.933 10.347 1.672 25.383 8.711 50.275a2.9 2.9 0 01-.445 2.595 3.193 3.193 0 01-2.5 1.238 2.869 2.869 0 01-2.465-1.387c-7.081-11-14.792-20.339-22.3-27.022-7.795-6.938-14.96-10.6-20.722-10.6a11.334 11.334 0 00-6.32 1.818c-6.671 4.334-9.168 9.9-8.1 18.064 1.064 8.112 5.715 19.169 15.079 35.853a2.915 2.915 0 01-.013 2.965 2.962 2.962 0 01-3.8 1.255 35.42 35.42 0 00-13.949-3.298z" fill="#fe7624"/><path d="M460.8 531.8l.2-.6-287.7.9.2.6a29.748 29.748 0 00-23.7 33.7l21.5 138.8 291.6-.9 21.5-138.8a29.654 29.654 0 00-23.6-33.7z" fill="#feba91"/><path d="M932 481.8a119.019 119.019 0 00-13.4.8c-23.9-33-51.3-61-80.1-78.8-75-46.2-178-33-274.1 2.6-66.1 24.4-149.8 103.2-203.5 159-70 5.3-123.8 52.9-120.6 107.4a80.582 80.582 0 009.6 33.4l234.9 1.6c.4-.6.8-1.3 1.2-1.9l348.4-1.2c.4.5.8 1 1.2 1.6l192.9-.3c17.9-23.7 28.6-54 28.6-87.1 0-75.8-56-137.1-125.1-137.1z" fill="#5d21d1"/><g fill="#fff"><path d="M845.4 408.3c-88.7 55-168.3 56.2-219.9 47.3-47.8-8.2-82.3-26.6-93.5-33.8-1.9 1.1-3.8 2.2-5.8 3.3 9.2 6.3 45.2 27.1 97.2 36.2a294.635 294.635 0 0051.3 4.5 298.4 298.4 0 0052.4-4.6c42.1-7.5 83.6-24 123.6-49.1-1.8-1.4-3.5-2.6-5.3-3.8z"/><path data-name="Path" d="M836.2 502.795c14.1-19.8 31.5-30.9 51.8-33.1a66.5 66.5 0 0122 1.4c-1.9-2.4-3.8-4.8-5.7-7.1a69.423 69.423 0 00-16.6-.2c-15.3 1.6-37.5 9-56.4 35.6a3.041 3.041 0 00.7 4.2 2.716 2.716 0 001.7.6 3.23 3.23 0 002.5-1.4zm1.1 70.305a3.08 3.08 0 003.1-2.9c.2-8.8 3.7-28.8 16-47.6 14.2-21.9 35.2-35.3 62.2-40.1-1.3-1.8-2.6-3.6-4-5.4-27 5.5-48.8 20-63.3 42.2-12.1 18.6-16.7 39-17 50.7a3.031 3.031 0 003 3.1zm-423.7-29.5a143.643 143.643 0 00-33.9 2.6c-3 3-6 6-8.9 9 11.1-6.1 74.3-13.7 100.4 16a2.9 2.9 0 002.3 1 3.057 3.057 0 002-.7 3 3 0 00.3-4.2c-16.9-19.3-46.2-23.1-62.2-23.7zm-54.7 22h.2a.139.139 0 00-.2 0z"/><path data-name="Path" d="M465 586.5c-35.3-26.7-79.3-28.3-97.9-27.5-2.1 2.2-4.2 4.3-6.2 6.4 10.7-.9 61.8-3.3 100.5 25.9a3 3 0 003.6-4.8z"/></g><path d="M312.5 705.3s32.8-97 125.1-79.4 218.6 55.4 218.6 55.4v24.3z" fill="#fff"/><path d="M656.198 708.6l-343.7-.3a3 3 0 01-2.84-3.961c.023-.069.055-.16.095-.271l.388-1.062c.145-.386.283-.748.422-1.1l.489-1.23a141.437 141.437 0 014.246-9.442 155.71 155.71 0 0118.11-28.579 127.26 127.26 0 0118.628-18.944 104.686 104.686 0 0121.872-13.819 96.733 96.733 0 0120.069-6.808 101.446 101.446 0 0121.779-2.324 120.073 120.073 0 0122.406 2.193c17.189 3.278 36.8 7.5 58.276 12.541l3.644.859a2413.64 2413.64 0 0140.3 9.931c26.091 6.658 53.663 14.092 81.95 22.1a3162.459 3162.459 0 0125.347 7.282l5.392 1.582 3.992 1.183a2.98 2.98 0 012.135 2.869v24.3a3 3 0 01-3 3zm-240.442-81.84a92.239 92.239 0 00-39.31 8.571c-14.231 6.641-27.136 17.1-38.355 31.081a149.626 149.626 0 00-17.409 27.475c-1.3 2.644-2.5 5.254-3.542 7.757l-.274.661 336.335.293v-19.06l-9.278-2.722a3276.845 3276.845 0 00-23.226-6.664l-4.2-1.187c-26.729-7.529-52.836-14.55-77.6-20.869a2338.1 2338.1 0 00-40.2-9.9c-22.839-5.408-43.584-9.9-61.661-13.344a114.049 114.049 0 00-21.28-2.092z" fill="#2e186a"/><path data-name="Path" d="M1041.3 347s-7.4-3.7-8.3-12.2 4.8-45.5 14-50.7c9.3-5.2 51.6-28.1 59.4-27.6s11 68.4-65.1 90.5z" fill="#fff"/><path data-name="Path" d="M1045.8 288.2c15.8-55.3 28.7-67.7 36.2-62.3 6.8 4.9-7 40.1-11 58.4" fill="#fff"/><path d="M1064.505 232.64l.485-.725c6.395-9.395 13.036-12.573 18.764-8.449 3.377 2.433 3.741 7.462 2.39 15.456l-.2 1.127c-.9 4.945-2.39 10.72-4.819 19.117l-3.971 13.55c-1.858 6.4-2.478 8.8-3.226 12.224a3 3 0 01-5.862-1.281l.284-1.276c.645-2.843 1.3-5.336 2.818-10.569l4-13.652a186.722 186.722 0 005.057-20.24l.123-.76c.812-5.219.557-8.352-.1-8.828-2.3-1.657-5.805.112-10.728 7.6l-.445.688c-6.319 9.923-13.222 27.314-20.39 52.4a3 3 0 01-5.77-1.646l.516-1.795c7.307-25.245 14.391-42.773 21.074-52.941z" fill="#2e186a"/><path d="M1115.5 276.2c7.9-12.9 21-12.2 14.2 9.7-6.7 21.4-11.6 49.2-24.1 61.8s-17 18.2-17 18.2-25 93.3-39.2 170.9c-20.5 112.2-59.3 133.8-95.5 120.9-36.2-12.8-42.9-63.6 6.5-162.1 49.4-98.6 75.5-156 75.5-156" fill="#fff"/><path d="M1112.942 274.634c4.485-7.323 11.008-11.431 16.239-9.439 5.761 2.195 6.884 10.02 3.519 21.153l-.726 2.359c-.866 2.852-1.757 5.978-2.936 10.246l-2.173 7.893c-6.357 22.93-11.063 34.677-18.879 42.7l-1.965 1.99c-4.086 4.151-7.494 7.737-10.278 10.779l-1.1 1.214a157.823 157.823 0 00-2.86 3.242l-.45.528-1.58 6-1.418 5.445a2879.334 2879.334 0 00-4.442 17.372c-5.709 22.614-11.418 46.275-16.746 69.82l-1.151 5.113a2051.908 2051.908 0 00-6.953 32.175l-.866 4.2q-2.781 13.57-5.116 26.093l-.705 3.821c-9.78 53.527-24.185 89.309-42.63 108.881-16.5 17.508-35.978 21.736-56.821 14.308-20.034-7.081-30.829-24.76-30.855-51.732-.026-28.082 11.49-66.023 34.953-113.1l4.611-9.218c18.685-37.405 35.183-71.192 49.436-101.025l5.544-11.643q5.135-10.823 9.316-19.772l4.382-9.421 2.878-6.257a3 3 0 015.53 2.321l-.376.837-3.118 6.766-4.281 9.194q-4.869 10.409-11 23.313l-4.2 8.8c-15.088 31.553-32.658 67.472-52.642 107.36-45.377 90.471-45.326 144.788-8.176 157.924 18.655 6.648 35.618 2.966 50.447-12.769 17.326-18.384 31.223-52.658 40.806-104.275l.289-1.569c1.976-10.8 4.223-22.244 6.715-34.253 2.5-12.028 5.216-24.528 8.127-37.394 5.043-22.287 10.426-44.671 15.827-66.178l2.2-8.7q1.532-6.024 2.929-11.423l1.864-7.16 1.592-6.028a3 3 0 01.559-1.1l.412-.5.545-.643a167.09 167.09 0 012.968-3.365l1.515-1.663c3.154-3.433 7.054-7.511 11.769-12.264l.456-.469c6.406-6.731 10.752-17.234 16.357-37.018l3.6-12.992c1-3.571 1.795-6.329 2.6-8.933l.361-1.164c2.7-8.7 2.057-13.5.21-14.207s-5.826 1.8-8.986 6.963a3 3 0 01-5.117-3.134z" fill="#2e186a"/><path data-name="Path" d="M1036.8 341.3c-7.2-4.9-6.3-33.1-14.4-45.4-10-15.3-19.8-31.2-1.3-28.8 15.9 2 20.9 16 24.6 21" fill="#fff"/><path data-name="Path_2_" d="M1008.151 275.585c-2.079-8.374 2.803-12.827 13.324-11.462 8.831 1.111 15.226 5.48 20.406 12.457l.242.332c1.891 2.647 5.49 8.678 5.964 9.369l.027.038a3 3 0 11-4.825 3.561l-.1-.145c-.854-1.263-4.595-7.525-6.124-9.585-4.276-5.759-9.3-9.193-16.348-10.079-3.677-.477-5.815-.138-6.6.578-.464.423-.62 1.406-.2 3.233l.061.254c1.04 4.19 4.046 9.551 10.6 19.6l.336.515c3.063 4.652 4.948 10.806 6.873 20.648l.389 2.031 1.165 6.35c1.829 9.681 3.257 14.141 5.055 15.479l.092.065a3 3 0 01-3.376 4.96c-3.752-2.553-5.365-7.274-7.556-18.8l-1.352-7.293-.195-1.02c-1.784-9.257-3.485-14.988-5.958-18.874l-1.858-2.867c-6.04-9.369-8.858-14.577-10.042-19.345z" fill="#2e186a"/><path data-name="Path" d="M1106.3 299.6s14.1-34.2 18.8-50.1c5.2-17.3-13-19.8-21.8 5.1" fill="#fff"/><path data-name="Path_2_" d="M1119.255 233.231c7.8-.507 11.6 7.089 8.818 16.791l-.1.328c-1.433 4.857-3.789 11.613-6.862 19.819l-.55 1.463q-.637 1.691-1.307 3.443c-1.949 5.1-4.019 10.378-6.1 15.6l-1.708 4.254-1.775 4.356-.6 1.458a3 3 0 01-5.61-2.122l2.417-5.944.81-2.012c2.077-5.17 4.154-10.432 6.123-15.549l1.277-3.336.858-2.265c3.2-8.5 5.666-15.5 7.155-20.459l.125-.42c1.915-6.373.336-9.607-2.582-9.418-4.32.281-9.885 6.106-13.516 16.381a3 3 0 11-5.657-2c4.346-12.292 11.611-19.902 18.784-20.368z" fill="#2e186a"/><path data-name="Path" d="M1089.7 290.598s27.7-62.7 15.3-68.3c-11.3-5.1-19.9 17.8-34.1 62" fill="#fff"/><path data-name="Path_2_" d="M1086.782 232.632c6.017-11.632 12.129-16.372 19.453-13.066 7.532 3.4 6.1 16.387-.633 37.593a300.453 300.453 0 01-3.834 11.236c-1.812 5-3.738 9.975-5.677 14.742l-.727 1.778a336.97 336.97 0 01-1.9 4.529l-1.023 2.369a3 3 0 01-5.488-2.425l.781-1.8.65-1.528a416.027 416.027 0 007.739-19.705c1.378-3.8 2.639-7.488 3.757-11.008l.49-1.564c5.051-16.351 6.187-27.488 3.396-28.746-3.472-1.567-7.172 1.43-12.048 11.126l-.56 1.131c-4.489 9.223-9.293 22.686-17.4 47.926a3.001 3.001 0 11-5.714-1.838l1.743-5.4c7.412-22.853 11.965-35.288 16.425-44.227z" fill="#2e186a"/><g transform="translate(552.2)"><path d="M84.8 336.2l3.9 70.7s-6.6 38.2 46.4 31.1c52.8-7 46.3-38.3 46.3-38.3l-16.3-87.8z" fill="#fff"/><path d="M122.746 441.886c-8.958 0-16.462-1.574-22.3-4.677a27.02 27.02 0 01-12.29-13.094 32.769 32.769 0 01-2.573-16.448c.02-.206.042-.4.064-.592l.041-.32-3.888-70.39a2.991 2.991 0 012.131-3.036l80.3-24.3a3 3 0 013.819 2.323l16.31 87.847c.032.168.065.375.1.616l.05.407a27.3 27.3 0 01-.8 10.279 31.29 31.29 0 01-5.487 10.863c-7.912 10.3-22.285 16.9-42.721 19.607a96.811 96.811 0 01-12.756.915zm40.016-126.145l-74.837 22.647 3.775 68.347a3.038 3.038 0 01-.009.452l-.031.224a9.977 9.977 0 00-.056.412l-.045.423a26.742 26.742 0 002.078 13.419c4.227 9.45 13.947 14.242 28.89 14.243a92.614 92.614 0 0012.183-.882c18.806-2.493 31.846-8.319 38.756-17.314a23.375 23.375 0 005.08-16.813c-.023-.2-.046-.368-.068-.5l-15.716-84.658z" fill="#2e186a"/><path d="M185.4 222.696s41-15.4 42.6 27.3-42.6 31.6-42.6 31.6" fill="#fff"/><path d="M189.37 218.428a45.966 45.966 0 0117.836-.957c14.132 2.303 23.051 12.642 23.793 32.416.766 20.447-8.337 31.639-23.635 34.987a52.582 52.582 0 01-18.985.341l-.968-.155c-1.22-.206-2.152-.4-2.74-.551a3 3 0 011.289-5.857l.651.147.31.065c.688.142 1.479.285 2.36.419a46.831 46.831 0 0016.8-.27c12.518-2.74 19.576-11.418 18.918-28.901l-.046-1.016c-.867-16.25-7.659-23.9-18.715-25.7a40.221 40.221 0 00-15.488.871c-1.01.239-1.943.492-2.782.745l-.412.127c-.306.1-.558.179-.752.245l-.35.124a3.002 3.002 0 11-2.109-5.621l.387-.141a46.734 46.734 0 014.638-1.318z" fill="#2e186a"/><path d="M108.5 357.7a80.4 80.4 0 01-80.4-80.4v-70.2a51.555 51.555 0 0151.5-51.5H150a39.05 39.05 0 0139 39v82.6a80.511 80.511 0 01-80.5 80.5z" fill="#fff"/><path d="M108.5 360.7a83.008 83.008 0 01-46.628-14.244 83.653 83.653 0 01-30.218-36.694A82.867 82.867 0 0125.1 277.3v-70.2a54.562 54.562 0 0154.5-54.5H150a42.047 42.047 0 0142 42v82.6a83.117 83.117 0 01-13.977 46.251 83.769 83.769 0 01-36.109 30.291 82.953 82.953 0 01-32.057 6.948zM79.6 158.6a48.555 48.555 0 00-48.5 48.5v70.2a77.476 77.476 0 0077.376 77.4l1.308-.011c42.026-.682 76.217-35.444 76.217-77.49V194.6a36.041 36.041 0 00-36-36z" fill="#2e186a"/><path data-name="Path" d="M207.7 315.3a277.361 277.361 0 00-4.9-52.2c0-.3.1-.7.1-1a11.4 11.4 0 00-11.4-11.4v11.4l.3 11.4a11.725 11.725 0 006.4-2.2c3.7 23 11 91.6-19.8 149.9-5.6 10.7-10.9 20.6-16.1 30.1-29 54.1-48.2 89.9-47.7 121.8a3.076 3.076 0 003 3 3.009 3.009 0 003-3c-.4-30.4 18.5-65.6 47-118.9 5.1-9.6 10.4-19.4 16.1-30.2 20.1-38.1 24.2-80.1 24-108.7zM20.3 274.8a10.321 10.321 0 004.6 1.4v-22.7a11.276 11.276 0 00-10.2 9.7 3.371 3.371 0 00-.5 1.7c0 4.6 0 112.3 32 160.9C78.9 475.6 89 504 91.3 552.2a3.058 3.058 0 003 2.9h.1a3.075 3.075 0 002.9-3.1c-2.3-49.6-12.6-78.6-46.1-129.5-25.6-38.8-30.1-119.6-30.9-147.7z" fill="#fe7624"/><path d="M83.849 226a3 3 0 013.042 2.773l.009.176 1.077 63.484.047.018a1.165 1.165 0 00.789-.067l.147-.059c1.542-.66 3.574-2.892 5.907-7.163a3 3 0 015.266 2.876c-5.481 10.037-11.379 12.56-16.09 9a6.908 6.908 0 01-1.506-1.524 3 3 0 01-.525-1.44l-.012-.223-1.1-64.8A3 3 0 0183.849 226zm31.608 75.889a3 3 0 014.513 1.636l.07.248c.073.277.155.641.232 1.084a16.941 16.941 0 01-1.728 11.129c-3.35 6.205-10.59 10.25-22.25 11.4a3 3 0 01-.588-5.971c9.819-.967 15.25-4 17.559-8.278a10.594 10.594 0 001.117-3.239l.065-.424-.091.05c-13.04 7.023-26.067 7.491-32.523.269l-.215-.247a3 3 0 014.565-3.893c4.641 5.445 16.926 4.318 29.274-3.764zm-4.29-99.294c6.546-4.979 14.318-5.511 22.7 1.157a3.002 3.002 0 01-3.735 4.7c-6.065-4.829-10.833-4.503-15.333-1.081a19.424 19.424 0 00-1.737 1.5l-1.1 1.089a6.523 6.523 0 01-.427.382 3.053 3.053 0 01-1.307.67 3 3 0 01-2.529-5.309l.13-.094.657-.653a26.44 26.44 0 012.681-2.361z" fill="#2e186a"/><ellipse cx="5" cy="7.7" rx="5" ry="7.7" transform="translate(127 240.4)" fill="#2e186a"/><ellipse cx="5" cy="7.7" rx="5" ry="7.7" transform="translate(54.3 242.3)" fill="#2e186a"/><path d="M45.354 201.649c7.489-5.974 15.701-6.256 22.913 3.008a3 3 0 11-4.734 3.686c-4.869-6.253-9.3-6.1-14.437-2a25.977 25.977 0 00-2.017 1.8l-1.18 1.172a7.642 7.642 0 01-.429.392 2.984 2.984 0 01-1.345.7 3 3 0 01-2.526-5.305l.115-.083.772-.774a33.308 33.308 0 012.868-2.596z" fill="#2e186a"/><path data-name="Path" d="M128.6 138.1c-19.5.3-34.3 1.2-43.1 2.9-71.6 16.3-60 69.3-60 69.3s35 6.7 63.5-35.5c0 0 39.1 31.9 97 44.8.9-.2 2-.5 3-.8v2.9a46.707 46.707 0 0114.6-1.5c-.6-20.9-4.4-47.3-21.6-64.3-12.2-12.1-30.2-18.1-53.4-17.8z" fill="#2e186a"/><path data-name="Path" d="M87.088 134.529A351.244 351.244 0 01131.932 132c30.908.328 51.568 11.716 63.805 31.801a88.58 88.58 0 0110.444 27 171.635 171.635 0 013.408 23.935 3 3 0 01-5.977.521l-.161-1.795c-1.865-20.148-5.064-33.788-12.837-46.542-11.149-18.288-29.879-28.614-58.732-28.92l-1.763-.006a342.914 342.914 0 00-42.206 2.478 3 3 0 11-.825-5.943z" fill="#fff"/><path data-name="Path" d="M316.5 94.6C291.8 24 221.8-15.7 160.1 5.9c-50.7 17.7-80 71.4-75.2 129.1 9.3-1.6 23.9-2.6 43.7-2.9 24.9-.3 44.3 6.2 57.7 19.5 19 18.8 22.9 47.3 23.4 69.5 9.2 2.5 17.7 10 18.4 28.9.1 1.9-1.6 16.6-1.2 16.5a31.6 31.6 0 004.5 16.4c6.9 11.1 20.9 18 41.7 20.4h.4a2.96 2.96 0 00.4-5.9c-18.8-2.2-31.4-8.1-37.3-17.6a24.467 24.467 0 01-3.6-11.1c5.1 6 14 12.5 28.1 12.5a56.866 56.866 0 0011.1-1.2 2.961 2.961 0 10-1.2-5.8c-18.2 3.8-28.3-3.1-33.6-9.3a103.666 103.666 0 0012.1-3.4c61.6-21.7 91.6-96.4 67-166.9z" fill="#2e186a"/><g fill="#2e186a"><path d="M136.3 289.6a39.61 39.61 0 01-15.414-76.088 39.61 39.61 0 0130.828 72.976A39.353 39.353 0 01136.3 289.6zm0-73.2a33.6 33.6 0 1033.6 33.6 33.638 33.638 0 00-33.6-33.6z"/><path data-name="Path" d="M98.9 246.1a3 3 0 01.176 5.995l-.176.005H75.1a3 3 0 01-.176-5.995l.176-.005zm88.623-28.112a3 3 0 013.109 5.129l-.156.095-20.7 11.7a3 3 0 01-3.109-5.129l.156-.095z"/><path data-name="Oval" d="M37.3 289.6a39.61 39.61 0 01-15.414-76.088 39.61 39.61 0 0130.828 72.976A39.353 39.353 0 0137.3 289.6zm0-73.2A33.6 33.6 0 1070.9 250a33.638 33.638 0 00-33.6-33.6z"/></g></g><path d="M841.2 667.8h-20.8l-10.2-151.3a20.85 20.85 0 00-20.5-19.2H499.8a17.674 17.674 0 00-17.9 19.2L493.2 684a20.85 20.85 0 0020.5 19.2l327.4-.4a10.819 10.819 0 0010.8-10.8v-13.3a10.693 10.693 0 00-10.7-10.9z" fill="#fe7624"/><g fill="#fff"><path data-name="Path" d="M665.2 597.4a28.182 28.182 0 00-15.4-8.3 10.226 10.226 0 001.7-4.6 10.449 10.449 0 00-8.6-11.2h-.3c-1.1-4.1-3.2-10.9-5.6-13.8a3.1 3.1 0 00-3.8-.8 2.084 2.084 0 00-.4 3.2c1.6 1.9 3.5 7.8 4.7 12.3a9.2 9.2 0 00-4.9 7.5 10.623 10.623 0 002.8 8.1 23.432 23.432 0 00-5.1 2.3c-10.4 6.5-11.7 19.3-2.9 28.8 8.8 9.4 24.5 11.8 34.9 5.3 10.5-6.5 11.8-19.4 2.9-28.8z"/><path data-name="Path" d="M660.8 559s-15-3-17 9.5c.1 0 11.9 4.2 17-9.5z"/></g><path d="M1222.1 703.2a3 3 0 01.176 5.995l-.176.005H3a3 3 0 01-.176-5.995L3 703.2z" fill="#2e186a"/></g></g></svg>