<svg width="145" height="14" viewBox="0 0 145 14" fill="none" xmlns="http://www.w3.org/2000/svg">
<path fill-rule="evenodd" clip-rule="evenodd" d="M0 14V0H14.0039V14H0ZM3.88579 10.7545H10.1184L7.00196 2.5896L3.88579 10.7545ZM40.0034 0H36.9679V10.3823C36.9695 10.4746 36.9525 10.5664 36.9179 10.6521C36.8833 10.7377 36.8318 10.8156 36.7665 10.8809C36.7011 10.9462 36.6233 10.9977 36.5376 11.0323C36.4519 11.0669 36.3601 11.0839 36.2677 11.0823H31.8824C31.79 11.0839 31.6982 11.0669 31.6125 11.0323C31.5268 10.9977 31.4489 10.9462 31.3836 10.8809C31.3182 10.8156 31.2667 10.7377 31.2321 10.6521C31.1975 10.5664 31.1805 10.4746 31.1822 10.3823V0H28.1466V12.1318L30.0153 14H38.1368L40.0038 12.1335V0H40.0034ZM56.1636 0H53.0132L50.3528 5.24919C50.1428 5.64572 49.9327 5.87919 49.396 5.87919H48.1126C48.0202 5.88084 47.9284 5.86385 47.8427 5.82926C47.757 5.79466 47.6792 5.74316 47.6138 5.67783C47.5485 5.6125 47.497 5.53467 47.4623 5.449C47.4277 5.36333 47.4108 5.27157 47.4124 5.17919V0H44.472V14H47.4124V9.00532C47.4108 8.91294 47.4277 8.82118 47.4623 8.73551C47.497 8.64983 47.5485 8.57201 47.6138 8.50668C47.6792 8.44135 47.757 8.38985 47.8427 8.35525C47.9284 8.32065 48.0202 8.30367 48.1126 8.30532H49.5361C50.0027 8.30532 50.2128 8.51532 50.4228 8.93532L52.8986 14H56.2126L52.6135 6.8631L56.1636 0ZM70.4006 6.76572L68.3935 8.79572L71.0077 13.998H67.7872L65.5235 9.42572C65.2665 8.93532 65.0568 8.81879 64.6832 8.81879H62.9562C62.8638 8.81714 62.772 8.83412 62.6863 8.86872C62.6006 8.90331 62.5228 8.95481 62.4574 9.02015C62.3921 9.08548 62.3406 9.1633 62.306 9.24897C62.2714 9.33464 62.2544 9.42641 62.256 9.51879V14H59.4322V0H68.5335L70.4006 1.86653V6.76572ZM62.6859 6.43579C62.7716 6.47039 62.8634 6.48737 62.9558 6.48572V6.48613H66.8996C66.992 6.48777 67.0838 6.47079 67.1695 6.43619C67.2552 6.4016 67.333 6.3501 67.3984 6.28477C67.4637 6.21943 67.5152 6.14161 67.5498 6.05594C67.5844 5.97027 67.6014 5.87851 67.5998 5.78613V3.33613C67.6014 3.24375 67.5844 3.15199 67.5498 3.06631C67.5152 2.98064 67.4637 2.90282 67.3984 2.83749C67.333 2.77216 67.2552 2.72066 67.1695 2.68606C67.0838 2.65146 66.992 2.63448 66.8996 2.63613H62.9558C62.8634 2.63448 62.7716 2.65146 62.6859 2.68606C62.6002 2.72066 62.5224 2.77216 62.457 2.83749C62.3917 2.90282 62.3402 2.98064 62.3056 3.06631C62.271 3.15199 62.254 3.24375 62.2556 3.33613V5.78572C62.254 5.8781 62.271 5.96986 62.3056 6.05553C62.3402 6.14121 62.3917 6.21903 62.457 6.28436C62.5224 6.34969 62.6002 6.40119 62.6859 6.43579ZM101.334 0H93.3061L91.439 1.86653V14H94.3094V9.51879C94.3078 9.42641 94.3248 9.33464 94.3594 9.24897C94.394 9.1633 94.4455 9.08548 94.5108 9.02015C94.5762 8.95481 94.654 8.90331 94.7397 8.86872C94.8254 8.83412 94.9172 8.81714 95.0096 8.81879H99.6301C99.7225 8.81714 99.8143 8.83412 99.9 8.86872C99.9857 8.90331 100.064 8.95481 100.129 9.02015C100.194 9.08548 100.246 9.1633 100.28 9.24897C100.315 9.33464 100.332 9.42641 100.33 9.51879V14H103.201V1.86653L101.334 0ZM95.0096 6.48572C94.9172 6.48737 94.8254 6.47039 94.7397 6.43579C94.654 6.40119 94.5762 6.34969 94.5108 6.28436C94.4455 6.21903 94.394 6.14121 94.3594 6.05553C94.3248 5.96986 94.3078 5.8781 94.3094 5.78572V3.40613C94.3078 3.31375 94.3248 3.22199 94.3594 3.13631C94.394 3.05064 94.4455 2.97282 94.5108 2.90749C94.5762 2.84216 94.654 2.79066 94.7397 2.75606C94.8254 2.72146 94.9172 2.70448 95.0096 2.70613H99.6301C99.7225 2.70448 99.8143 2.72146 99.9 2.75606C99.9857 2.79066 100.064 2.84216 100.129 2.90749C100.194 2.97282 100.246 3.05064 100.28 3.13631C100.315 3.22199 100.332 3.31375 100.33 3.40613V5.78613C100.332 5.87851 100.315 5.97027 100.28 6.05594C100.246 6.14161 100.194 6.21943 100.129 6.28477C100.064 6.3501 99.9857 6.4016 99.9 6.43619C99.8143 6.47079 99.7225 6.48777 99.6301 6.48613H95.0096V6.48572ZM134.859 0H142.885L144.75 1.86653V14H141.88V9.52081C141.882 9.42843 141.865 9.33667 141.83 9.251C141.795 9.16533 141.744 9.0875 141.678 9.02217C141.613 8.95684 141.535 8.90534 141.45 8.87074C141.364 8.83615 141.272 8.81916 141.18 8.82081H136.559C136.467 8.81966 136.376 8.83695 136.291 8.87164C136.205 8.90633 136.128 8.95773 136.063 9.02279C135.998 9.08785 135.947 9.16527 135.912 9.25046C135.878 9.33565 135.861 9.42689 135.862 9.51879V14H132.992V1.86653L134.859 0ZM136.289 6.43579C136.375 6.47039 136.466 6.48737 136.559 6.48572V6.48613H141.18C141.272 6.48777 141.364 6.47079 141.45 6.43619C141.535 6.4016 141.613 6.3501 141.678 6.28477C141.744 6.21943 141.795 6.14161 141.83 6.05594C141.865 5.97027 141.882 5.87851 141.88 5.78613V3.40613C141.882 3.31375 141.865 3.22199 141.83 3.13631C141.795 3.05064 141.744 2.97282 141.678 2.90749C141.613 2.84216 141.535 2.79066 141.45 2.75606C141.364 2.72146 141.272 2.70448 141.18 2.70613H136.559C136.466 2.70448 136.375 2.72146 136.289 2.75606C136.203 2.79066 136.125 2.84216 136.06 2.90749C135.995 2.97282 135.943 3.05064 135.909 3.13631C135.874 3.22199 135.857 3.31375 135.859 3.40613V5.78572C135.857 5.8781 135.874 5.96986 135.909 6.05553C135.943 6.14121 135.995 6.21903 136.06 6.28436C136.125 6.34969 136.203 6.40119 136.289 6.43579ZM116.771 2.7996V0H107.669V14H110.539V9.51879C110.538 9.42641 110.555 9.33464 110.589 9.24897C110.624 9.1633 110.675 9.08548 110.741 9.02015C110.806 8.95481 110.884 8.90331 110.97 8.86872C111.055 8.83412 111.147 8.81714 111.24 8.81879H116.304V6.34613H111.24C111.147 6.34777 111.055 6.33079 110.97 6.29619C110.884 6.2616 110.806 6.2101 110.741 6.14477C110.675 6.07943 110.624 6.00161 110.589 5.91594C110.555 5.83027 110.538 5.7385 110.539 5.64613V3.50162C110.538 3.40924 110.555 3.31748 110.589 3.23181C110.624 3.14613 110.675 3.06831 110.741 3.00298C110.806 2.93765 110.884 2.88615 110.97 2.85155C111.055 2.81696 111.147 2.79997 111.24 2.80162H116.771V2.7996ZM122.851 2.84953C122.766 2.81493 122.674 2.79795 122.581 2.7996H118.871V0H130.679V2.7996H126.969C126.876 2.79795 126.785 2.81493 126.699 2.84953C126.613 2.88412 126.535 2.93562 126.47 3.00096C126.405 3.06629 126.353 3.14411 126.318 3.22978C126.284 3.31545 126.267 3.40722 126.269 3.4996V14H123.282V3.4996C123.283 3.40722 123.266 3.31545 123.232 3.22978C123.197 3.14411 123.145 3.06629 123.08 3.00096C123.015 2.93562 122.937 2.88412 122.851 2.84953ZM86.9692 0H84.217V8.95919C84.217 9.44919 83.7268 9.49572 83.4937 9.12104L78.381 0H74.7404V14H77.4926V5.03919C77.4926 4.54919 77.9828 4.50266 78.2159 4.87734L83.3286 14H86.9692V0Z" fill="white"/>
</svg>
