<svg xmlns="http://www.w3.org/2000/svg" viewBox="0 0 1585.6 638.5"><g data-name="graphs and statistics/outline_II"><g data-name="graphs and statistics_outline_II"><path d="M197.149 167.618c12.981-14.74 32.848-18.036 51.517-9.655 18.686 8.389 33.072 26.971 37.838 50.748l.472 2.411.164.822c3.947 19.6 7.747 28.251 15.8 36.919l.28.3c4.264 4.432 22.753 20.943 25.431 23.452a3 3 0 11-4.1 4.378l-2.583-2.357c-6.035-5.469-19.816-17.872-23.284-21.539l-.137-.146c-8.906-9.586-13.139-19.224-17.287-39.818q-.251-1.247-.505-2.565c-8.709-45.49-55.049-66.293-79.1-38.981-10.388 11.787-11.435 29.573-5.035 50.823 4.613 15.316 13.293 31.91 19.623 39.848l.282.35c3.119 3.835 4.464 10.639 6 26.487l1.477 16.056.314 3.253c.451 4.577.9 8.666 1.394 12.706a282.075 282.075 0 006.21 34.616q.658 2.617 1.37 5.167a3 3 0 11-5.779 1.615q-.734-2.626-1.41-5.319a287.893 287.893 0 01-6.347-35.348l-.229-1.893a549.12 549.12 0 01-1.18-10.951l-.4-4.19c-.339-3.644-1.077-11.822-1.225-13.4l-.164-1.722c-1.384-14.24-2.661-20.81-4.679-23.291-6.851-8.4-16.091-25.966-21-42.255-6.936-23.028-5.771-42.847 6.272-56.521z" fill="#fe7624"/><path data-name="Path" d="M149.596 313.15c17.167-1.533 35.445 6.209 48.867 21.715l1.3 1.518c7.505 8.741 12.78 13.7 17.923 16.892 4.256 2.644 8.529 4.225 15.686 5.954l1.029.242c2.6.586 15.466 3.429 20.74 4.721l2.185.542c9.852 2.473 20.012 5.432 31.624 9.321 17.213 5.737 33.389 17.237 48.75 33.804a3 3 0 11-4.4 4.079c-14.726-15.884-30.1-26.809-46.253-32.195-11.891-3.982-22.217-6.971-32.26-9.461l-2.695-.654c-6.355-1.505-18.525-4.187-19.487-4.415-8.109-1.925-13.063-3.723-18.087-6.844-5.974-3.71-11.855-9.31-20.203-19.126-24.975-29.384-66.636-25.662-72.576 3.662-2.607 12.667 3.953 25.954 17.324 38.78 9.643 9.244 22.745 17.774 30.54 20.965l.392.158c4.013 1.572 7.906 6.125 15.681 17.221l9.01 12.948 1.62 2.3c4.366 6.145 8.33 11.44 12.4 16.482 13.414 16.619 26.887 29.011 41.737 37.111 9.1 4.982 17.588 7.025 26.045 6.749 6.346-.207 11.949-1.534 19.916-4.321l5.895-2.108 1.4-.488a82.11 82.11 0 013.573-1.147 28.826 28.826 0 019.735-1.434c7.08.387 12.572 4.711 17.172 13.827a3 3 0 11-5.357 2.7c-3.638-7.21-7.3-10.172-11.882-10.522l-.541-.031c-3.041-.146-4.588.161-12.359 2.87l-4.9 1.728c-8.892 3.151-15.167 4.682-22.455 4.92-9.534.311-19.088-1.988-29.119-7.481-15.639-8.53-29.662-21.427-43.528-38.607-3.911-4.845-7.714-9.9-11.843-15.683l-1.848-2.608-9.57-13.747-.945-1.342c-6.163-8.708-9.641-12.733-11.918-13.71l-.113-.046c-8.482-3.35-22.526-12.44-32.887-22.375-14.709-14.099-22.163-29.202-19.051-44.309 3.3-16.317 16.511-27.018 33.733-28.555z" fill="#fe7624"/><path data-name="Path" d="M358.071 122.907c11.089-21.373 29.105-32.028 54.808-29.594 10.826 1.012 19.489 4.041 26.114 8.982a3 3 0 11-3.587 4.81c-5.686-4.24-13.3-6.9-23.089-7.818-23.184-2.195-38.921 7.111-48.917 26.385-8.09 15.6-12.083 36.853-13.161 63.38l-.042 1.064c-.3 7.931-.315 14.223-.152 24.33l.125 7.616c.141 10.032.035 14.249-.539 19.418l-.031.273a50.385 50.385 0 01-6.7 20.856 68.8 68.8 0 01-12.159 14.725l-.594.559c-9.8 9.15-9.6 19.453-1.84 35.9l.78 1.625c.96 1.969 2 4 3.629 7.109l2.349 4.5a111.528 111.528 0 016 12.879c2.415 6.352 3.36 11.8 2.6 16.844l-.148.9c-.582 3.348-2.239 11.714-2.415 12.67a160.322 160.322 0 00-1.89 48.686c2.612 24.435 10.383 51.778 24.617 82.954a3 3 0 11-5.458 2.492c-14.494-31.746-22.441-59.711-25.125-84.808a165.812 165.812 0 011.773-49.4l.27-1.464c.444-2.309 2.144-10.918 2.445-12.918.563-3.741-.144-8.048-2.071-13.274l-.38-1a117.438 117.438 0 00-6-12.676l-2.764-5.291a222.314 222.314 0 01-3.384-6.733c-4.113-8.616-6.264-15.406-6.451-21.939-.228-7.949 2.621-14.969 8.987-21.082l.379-.359a63.962 63.962 0 0011.684-13.96 44.021 44.021 0 005.819-17.764l.141-1.222c.515-4.755.61-8.865.474-18.507l-.158-9.816c-.118-8.409-.092-14.235.146-21.123l.044-1.227c1.046-27.833 5.179-50.217 13.871-66.982zM437.2 506.2h-49a3 3 0 01-2.993-3.217c2.364-32.52 6.645-59.779 13.087-83.337 2.084-7.62 4.417-14.9 6.935-21.63a189.574 189.574 0 018.388-19.245 145.007 145.007 0 019.911-16.763 114.894 114.894 0 0111.506-14.183 2.952 2.952 0 012.143-.931 2.986 2.986 0 013.023 3.006v153.3a3 3 0 01-3 3zm-3-148.4l-.128.156c-12.641 15.438-22.732 36.73-29.991 63.273-6.125 22.4-10.259 48.192-12.638 78.849l-.009.122H434.2z" fill="#fe7624"/><path d="M436.3 500.2a3 3 0 01.176 5.995l-.176.005h-121a11.074 11.074 0 00-11.13 13.079l25.858 115.566a3 3 0 01-5.812 1.481l-.043-.171-25.797-115.283c-2.415-10.507 5.666-20.472 16.592-20.672h.332z" fill="#2e186a"/><path d="M1200.5 637.4H437.2a3 3 0 01-3-3V3a3 3 0 013-3h763.3a3 3 0 013 3v631.4a3 3 0 01-3 3zM440.2 6v625.4h757.3V6z" fill="#2e186a"/><path d="M914 544.6h-42.8a3 3 0 01-3-3v-66.8a3 3 0 013-3H914a3 3 0 013 3v66.8a3 3 0 01-3 3zm-39.8-66.8v60.8H911v-60.8z" fill="#2e186a"/><path data-name="Rectangle" d="M981.2 544.6h-42.8a3 3 0 01-3-3v-94.9a3 3 0 013-3h42.8a3 3 0 013 3v94.9a3 3 0 01-3 3zm-39.8-94.9v88.9h36.8v-88.9zm106.9 94.9h-42.8a3 3 0 01-3-3V402.3a3 3 0 013-3h42.8a3 3 0 013 3v139.3a3 3 0 01-3 3zm-39.8-139.3v133.3h36.8V405.3h-36.8z" fill="#2e186a"/><path data-name="Rectangle" fill="#fe7624" d="M1072.6 363.9h42.8v177.7h-42.8z"/><path d="M1129.9 272.7a3.1 3.1 0 00-2.4-.7l-28 4.5a3.011 3.011 0 00-2.5 3.4 3.09 3.09 0 003.4 2.5l18.3-2.9-54.6 63.4-22.3-21.4a2.651 2.651 0 00-2.2-.8 2.814 2.814 0 00-2.1 1l-73.2 85-21.2-15.9a3.028 3.028 0 00-3.9.2l-65.7 63a2.988 2.988 0 00-.1 4.2 3.1 3.1 0 002.2.9 3.439 3.439 0 002.1-.8l63.9-61.3 21.5 16.1a3.077 3.077 0 004.1-.4l72.9-84.7 22.3 21.4a2.651 2.651 0 002.2.8 2.814 2.814 0 002.1-1l58.3-67.7-.4 23.7a2.946 2.946 0 003 3 3.009 3.009 0 003-3l.5-30.3a3.738 3.738 0 00-1.2-2.2z" fill="#fe7624"/><path data-name="Path" d="M698.2 469.5a3 3 0 01.176 5.995l-.176.005h-184a3 3 0 01-.176-5.995l.176-.005zm-48.5 28a3 3 0 01.176 5.995l-.176.005H514.2a3 3 0 01-.176-5.995l.176-.005zm-43.5 31.4a3 3 0 01.176 5.995l-.176.005h-96a3 3 0 01-.176-5.995l.176-.005zm192.6-59.4a3 3 0 01.176 5.995l-.176.005h-79.4a3 3 0 01-.176-5.995l.176-.005z" fill="#2e186a"/><path data-name="Path" d="M601.5 411.3l21.2 20V391zm-30.5 21l21.8-20.9-21.8-20.5zm108.1-48.4h-49l24.7 23.3zm-82 31.6l-24.8 23.9h50.2zm31.6 16.8l21.8-20.9-21.8-20.5zm-118.5-44.2v47.1l24.8-23.8zm29.2 27.4l-24.8 23.9h50.2zm24.2-31.6h-49l24.8 23.3zm116.8 47.4V391l-21.2 20.3zm-136.6-20l21.2 20V391zm111.1 4.2l-24.8 23.9h50.2zm-33.6-31.6h-49l24.8 23.3zm116.8 0h-51.7v55.5h51.7zm60.7 0h-54.7v55.5h54.7zm-118.6 55.5c.1.1.1.1.2.1v-.1z" fill="#fe7624"/><g fill="#2e186a"><path data-name="Rectangle" d="M1087.7 214.5h-31a3 3 0 01-3-3v-31a3 3 0 013-3h31a3 3 0 013 3v31a3 3 0 01-3 3zm-28-31v25h25v-25zm34.1-20.5H975.3a3 3 0 01-3-3v-35.7a3 3 0 013-3h118.5a3 3 0 013 3V160a3 3 0 01-3 3zm-115.5-35.7V157h112.5v-29.7z"/><path data-name="Path" d="M1035.6 208.5a3 3 0 01.176 5.995l-.176.005h-60.3a3 3 0 01-.176-5.995l.176-.005zm0-14.7a3 3 0 01.176 5.995l-.176.005h-60.3a3 3 0 01-.176-5.995l.176-.005zm0-14.6a3 3 0 01.176 5.995l-.176.005h-60.3a3 3 0 01-.176-5.995l.176-.005z"/></g><path data-name="Path" d="M1042.8 292.3a3 3 0 01.176 5.995l-.176.005H878.1a3 3 0 01-.176-5.995l.176-.005zm-67.5 14.1a3 3 0 01.176 5.995l-.176.005h-97.2a3 3 0 01-.176-5.995l.176-.005z" fill="#2e186a"/><path data-name="Path" d="M709.1 209.9l113-57.3a126.927 126.927 0 0113.7 57.3c0 69.5-57.2 126.7-126.7 126.7a126.586 126.586 0 01-99.1-47.8z" fill="#fe7624"/><path data-name="Path" d="M910.9 110.2a3 3 0 01.176 5.995l-.176.005H806.2a3 3 0 01-.176-5.995l.176-.005zm0 14.1a3 3 0 01.176 5.995l-.176.005h-55.8a3 3 0 01-.176-5.995l.176-.005zm0 14.2a3 3 0 01.176 5.995l-.176.005h-37.1a3 3 0 01-.176-5.995l.176-.005zm3.1 84a3 3 0 01.176 5.995l-.176.005H778.9a3 3 0 01-.176-5.995l.176-.005zm0 11.1a3 3 0 01.176 5.995l-.176.005h-25.3a3 3 0 01-.176-5.995l.176-.005zM632.3 98.5a3 3 0 01.176 5.995l-.176.005h-80.5a3 3 0 01-.176-5.995l.176-.005zm-64.4 11.4a3 3 0 01.176 5.995l-.176.005h-16.1a3 3 0 01-.176-5.995l.176-.005z" fill="#2e186a"/><path data-name="Path" d="M590 294.2a2.986 2.986 0 01-2.35-1.133 124.147 124.147 0 01-27.05-76.235 3 3 0 012.968-3.032l121.9-1.3h.036a2.963 2.963 0 012.83 2.015 2.934 2.934 0 01-.97 3.337l-95.5 75.7a2.968 2.968 0 01-1.864.648zm86.769-75.608l-110.099 1.175.016.444a117.947 117.947 0 0023.6 66.447l.233.307zM568.8 209.299a3 3 0 01-3-3v-1.6a124.721 124.721 0 018.4-45.181 3.018 3.018 0 012.8-1.919 2.988 2.988 0 011.085.2l113.6 44.1a3 3 0 01-1.047 5.8l-121.799 1.6zm9.949-44.8l-.327.924a118.84 118.84 0 00-6.605 37.243l-.007.593 103.3-1.357zm134.936 31.615a3.03 3.03 0 01-2.6-1.529 2.911 2.911 0 010-2.968l60.1-105.7a3 3 0 014.094-1.127 124.111 124.111 0 0129 22.711 123.093 123.093 0 0121.013 30.172 3.005 3.005 0 01-1.356 4.013l-108.9 54.1a3.021 3.021 0 01-1.351.328zM774.907 91.52l-53.745 94.522 97.389-48.382-.189-.359a117.828 117.828 0 00-43.1-45.568z" fill="#fe7624"/><path data-name="Path" d="M759.8 90.2a121.894 121.894 0 00-59.7-16.1h-2a121.762 121.762 0 00-112.2 77.3l113.4 44.5zM586.3 234a3 3 0 01.176 5.995l-.176.005h-80.5a3 3 0 01-.176-5.995l.176-.005zm-51.4 11.4a3 3 0 01.176 5.995l-.176.005h-29.1a3 3 0 01-.176-5.995l.176-.005z" fill="#2e186a"/><g fill="#2e186a"><path data-name="Path" d="M1116.013 580.006a3 3 0 01.374 5.988 188.984 188.984 0 00-19.18 2.206l-8.46 1.486-3.665.661c-.927.17-1.82.335-2.69.5l-1.291.244c-9.329 1.775-16.028 3.342-19.927 4.78a15.449 15.449 0 00-2.123.929 4.641 4.641 0 00-.306.186l-.119.084c-.586.946-.407 1.444.921 2.254l.172.1c2.148 1.263 5.839 2.008 9.676 1.875a3.002 3.002 0 11.207 6c-4.894.169-9.692-.8-12.924-2.7-4.282-2.519-5.757-6.751-2.985-10.946.941-1.432 2.674-2.406 5.4-3.413l.619-.222a147.572 147.572 0 0118.938-4.569l2.631-.501c1.539-.289 3.143-.583 4.883-.9l8.517-1.503a194.988 194.988 0 0121.332-2.539z"/><path data-name="Path" d="M1098.521 637.487c-4.187 0-7.469-.641-9.756-1.906a6.488 6.488 0 01-3.66-5.665l-.005-.24a7.115 7.115 0 01.109-1.283l.033-.175-.284-.012a19.194 19.194 0 01-7.829-2.106 9.379 9.379 0 01-4.606-4.454l-.069-.194a4.6 4.6 0 01.282-3.316l.032-.074-.2.026a30.727 30.727 0 01-3.679.25 15.41 15.41 0 01-2.857-.238l-.254-.055a6.2 6.2 0 01-4.563-3.185c-.9-1.876-.655-4.39.69-7.079 1.4-2.865 7.819-7.353 20.192-14.125l1.86-1.01c8.507-4.577 16.819-8.528 20.215-9.608l.59-.176c2.767-.772 11.67-2.317 27.216-4.723l3.322-.511c4.2-.643 8.7-1.323 13.4-2.021l11.949-1.761 5.629-.815a3 3 0 013.3 2.094l.047.171 14.1 58.4a3 3 0 01-2.741 3.7l-.175.005h-79.5l-.342.02c-.847.043-1.667.066-2.446.066zm21.067-27.733a4.777 4.777 0 01.991.1l.085.019a3 3 0 01.158 5.81l-.87.254-1.6.481c-.8.243-1.526.469-2.233.691l-.592.187c-.924.294-1.817.583-2.652.859l-1.027.345-3.256 1.324-6.884 2.83a165.633 165.633 0 01-4.769 1.876l-.537.2c-2.951 1.047-5.314 3.535-5.3 4.9 0 .288.2.563 1.135.971a16.482 16.482 0 006.149.9c.687 0 1.418-.02 2.175-.06l.454-.026.186-.006h75.787l-12.564-52.049-6.958 1.015-7.882 1.166c-3.577.533-6.73 1.006-9.639 1.448l-9.347 1.437c-13.461 2.1-21.822 3.553-24.178 4.2l-.2.057c-3.942 1.13-13.71 6.064-21.642 10.455-7.446 4.123-16.444 9.558-17.3 11.3a7.23 7.23 0 00-.56 1.414l-.034.154-.006.076.155.047.215.052a8.883 8.883 0 001.83.159 47.587 47.587 0 009.872-1.508l1.17-.279.054-.04a69.667 69.667 0 018.969-5.383l.409-.208a139.088 139.088 0 015.847-2.767c3.66-1.636 7.734-3.307 12.109-4.969l1.21-.456c.57-.213 1.145-.426 1.711-.634l1.372-.5 1.222-.433a3 3 0 012.128 5.608l-1.623.581-1.038.376c-.952.349-1.912.707-2.853 1.065-4.269 1.622-8.236 3.249-11.79 4.838a134.69 134.69 0 00-5.591 2.646 56.272 56.272 0 00-11.135 7.161 17.141 17.141 0 00-2.213 2.242l-.12.158.185.145a11.582 11.582 0 002.741 1.48 11.723 11.723 0 004.2.825 8.749 8.749 0 002.89-.471l.074-.025.254-.154a82.418 82.418 0 0112.125-5.638l.653-.252a202.599 202.599 0 016.574-2.38l1.422-.482 1.39-.556c4.85-1.93 6.993-2.576 8.492-2.576z"/></g><path d="M1407.6 418.2a67.417 67.417 0 00-36.7-62.4l-37.7-20.3-4.1 18.6a37.5 37.5 0 01-44.7 28.5l-4.9-1.1a37.5 37.5 0 01-28.5-44.7l6.3-28.3c-7.2-5-12.9-11.8-15.6-20.6-.2-.6-.3-1.2-.5-1.7l-37.6-20.2-.1 291.7 102-20.9-4.9-68.5a3.007 3.007 0 016-.4l5.1 71.1a3.042 3.042 0 01-2.4 3.2l-105.8 21.7v.8l-57.9 10.6c11.4 2.2 24 58.7 24 58.7H1375a35.94 35.94 0 0035.9-36.5z" fill="#2e186a"/><g transform="translate(1212.6 112.6)"><path d="M126.264 179.884a3 3 0 015.9 1.059l-.031.174-12.804 61.035a40.5 40.5 0 01-47.63 30.915l-.654-.14-4.9-1.1a40.5 40.5 0 01-30.913-47.628l.14-.654 6.3-28.3a3 3 0 015.89 1.131l-.033.173-6.3 28.3a34.495 34.495 0 0025.67 40.995l.556.129 4.9 1.1a34.487 34.487 0 0040.981-25.634l.128-.555z" fill="#2e186a"/><path d="M79.733 209.421a69.543 69.543 0 01-25.818-5.053 53.259 53.259 0 01-17.63-11.385 40.344 40.344 0 01-10.252-16.8 73.117 73.117 0 01-2.857-20.89 146.844 146.844 0 013.372-30.606c.69-3.321 1.469-6.612 2.315-9.783l.268-.99.256-.919.243-.853.269-.915v-.009l.018-.063a340.691 340.691 0 0112.267-34.768 267.358 267.358 0 0115.673-31.889l.662-1.125.28-.466a39.781 39.781 0 0114.928-14.692 40.628 40.628 0 0119.612-4.647 57.14 57.14 0 015.976.324 75.666 75.666 0 0118.468 4.531 87.037 87.037 0 019.3 4.094l1.02.535a93.02 93.02 0 0118.09 12.358 68.717 68.717 0 0112.549 14.6 62.035 62.035 0 017.347 16.558 70.011 70.011 0 012.473 18.211 87.265 87.265 0 01-3.908 25.969 89.82 89.82 0 01-2.9 8.167c-.744 1.806-1.3 2.991-1.642 3.668l-.159.316-2.746 5.17q-.57 1.065-1.177 2.194l-1.806 3.347a1001.566 1001.566 0 01-9.83 17.743 667.37 667.37 0 01-1.12 1.959l-1.444 2.51c-6.535 11.288-11.194 18.524-14.244 22.122l-.327.384c-4.593 5.385-8.763 9.609-14.19 12.72-4.809 2.757-10.728 4.763-20.43 6.922l-1.205.265a55.276 55.276 0 01-11.701 1.186zm-44.144-96.603c-.541 2.085-1.978 7.624-2.937 12.023l-.167.783-.3 1.442a139.4 139.4 0 00-3.009 28.185 67.19 67.19 0 002.588 19.165c3.331 10.793 11.775 19.229 24.418 24.395a63.712 63.712 0 0023.55 4.611 49.272 49.272 0 0010.43-1.054c17.733-3.855 22.854-6.649 32.233-17.586l.774-.911c2.845-3.423 7.493-10.708 13.813-21.654l1.089-1.893 1.105-1.941a1004.871 1004.871 0 0010.749-19.443l.413-.768c.827-1.534 1.606-2.988 2.316-4.32l1.857-3.5.3-.6c.066-.134.144-.3.231-.484l.342-.743c.177-.4.335-.754.481-1.1l.338-.8c.991-2.406 1.9-4.97 2.7-7.623a81.282 81.282 0 003.65-24.181c-.193-24.441-12.735-43.442-37.277-56.477a79.941 79.941 0 00-9.607-4.3 69.663 69.663 0 00-16.985-4.185 51.181 51.181 0 00-5.351-.291c-13.038 0-23.014 5.673-29.657 16.863l-.645 1.1c-10.618 18.205-20.334 41.402-27.355 65.314l-.089-.027z" fill="#2e186a"/><path d="M32.8 111.9c5.9-20 15.3-45.3 28.3-67.1a28.965 28.965 0 011.9-2.9c-10.5-8.2-27.6 8.7-39.4 43.6-6.1 18-22.7 27.1-22.7 27.1 12.7 11.1 24.2 6.3 31.7 0 .1-.4.1-.7.2-.7zm26.813-12.61a3 3 0 015.635 2.054l-.06.166-12.363 31.041 8.214 3.035a3 3 0 011.831 3.687l-.056.167a3 3 0 01-3.687 1.831l-.167-.056-11.1-4.1a3 3 0 01-1.809-3.757l.061-.169z" fill="#2e186a"/><ellipse cx="5.5" cy="3.5" rx="5.5" ry="3.5" transform="rotate(-66.8 98.474 16.246)" fill="#2e186a"/><ellipse cx="5.5" cy="3.5" rx="5.5" ry="3.5" transform="rotate(-77.555 109.798 10.195)" fill="#2e186a"/><path d="M92.658 88.911a3 3 0 013.53-2.353 18.8 18.8 0 0110.833 6.241 19.534 19.534 0 012.937 4.587 14.326 14.326 0 01.846 2.265 3 3 0 01-5.76 1.671l-.091-.314a10.451 10.451 0 00-.448-1.121 13.577 13.577 0 00-2.036-3.181 12.819 12.819 0 00-7.458-4.265 3 3 0 01-2.353-3.53zM53.234 67.163c3.589-.262 7.206.951 10.734 3.084a27.078 27.078 0 014.161 3.043 3 3 0 01-4.058 4.419l-.125-.111a21.134 21.134 0 00-.7-.576 24.142 24.142 0 00-2.377-1.641 12.807 12.807 0 00-7.197-2.234 5.767 5.767 0 00-2.772.919l-.254.173a3 3 0 01-3.493-4.878 11.775 11.775 0 016.081-2.198z" fill="#2e186a"/><path d="M224.3 112.9l-33.9-17.2c4.3-25.2 1.6-64.2-45.7-86.2-74-34.4-101 39.7-101 39.7l169.5 85.5a12.31 12.31 0 0016.5-5.4 12.111 12.111 0 00-5.4-16.4z" fill="#fe7624"/><path d="M79.278 153.545a3 3 0 01.276 4.234 11.962 11.962 0 01-1.092 1.06 19.208 19.208 0 01-2.823 2.03c-6.363 3.774-14.4 4.254-23.616-.5a3.002 3.002 0 012.753-5.335c7.312 3.776 13.163 3.426 17.8.674a13.235 13.235 0 001.941-1.392l.246-.222.279-.274a3 3 0 014.236-.275zM186.5 121.2L115 85.1c-8.3 25.9-18.7 77.8 25.6 91.5 0 0 34.6 11.5 44.6.1 0 0-23.8-17.4-18.4-31.7 0 0 24.3 36 52.9 16.9-.1 0-33.8-10.8-33.2-40.7z" fill="#2e186a"/></g><path d="M1582.6 631.3a3 3 0 01.176 5.995l-.176.005H3a3 3 0 01-.176-5.995L3 631.3z" fill="#2e186a"/></g></g></svg>